<svg id="Layer_1" data-name="Layer 1" xmlns="http://www.w3.org/2000/svg" xmlns:xlink="http://www.w3.org/1999/xlink" viewBox="0 0 386.04 378.87"><defs><style>.cls-1{isolation:isolate;}.cls-2{fill:url(#New_Gradient_Swatch);}.cls-3{fill:url(#New_Gradient_Swatch-2);}.cls-4{fill:url(#New_Gradient_Swatch-3);}.cls-5{fill:url(#New_Gradient_Swatch-4);}.cls-6{fill:url(#New_Gradient_Swatch-5);}.cls-7{fill:url(#New_Gradient_Swatch-6);}.cls-8{fill:url(#New_Gradient_Swatch-7);}.cls-9{fill:url(#New_Gradient_Swatch-8);}.cls-10{fill:url(#New_Gradient_Swatch-9);}.cls-11{fill:url(#New_Gradient_Swatch-10);}.cls-12{fill:url(#New_Gradient_Swatch-11);}.cls-13{fill:url(#New_Gradient_Swatch-12);}.cls-14{fill:url(#New_Gradient_Swatch-13);}.cls-15{fill:url(#New_Gradient_Swatch-14);}.cls-16{fill:url(#New_Gradient_Swatch-15);}.cls-17{fill:url(#New_Gradient_Swatch-16);}.cls-18{fill:url(#New_Gradient_Swatch-17);}.cls-19{fill:url(#New_Gradient_Swatch-18);}.cls-20{fill:url(#New_Gradient_Swatch-19);}.cls-21{fill:url(#New_Gradient_Swatch-20);}.cls-22{fill:url(#New_Gradient_Swatch-21);}.cls-23{fill:url(#New_Gradient_Swatch-22);}.cls-24{fill:url(#New_Gradient_Swatch-23);}.cls-25{fill:url(#New_Gradient_Swatch-24);}.cls-26{fill:url(#New_Gradient_Swatch-25);}.cls-27{fill:url(#New_Gradient_Swatch-26);}.cls-28{fill:url(#New_Gradient_Swatch-27);}.cls-29{fill:url(#New_Gradient_Swatch-28);}.cls-30{fill:url(#New_Gradient_Swatch-29);}.cls-31{fill:url(#New_Gradient_Swatch-30);}.cls-32{fill:url(#New_Gradient_Swatch-31);}.cls-33{fill:url(#New_Gradient_Swatch-32);}.cls-34{fill:url(#New_Gradient_Swatch-33);}.cls-35{fill:url(#New_Gradient_Swatch-34);}.cls-36{fill:url(#New_Gradient_Swatch-35);}.cls-37{fill:url(#New_Gradient_Swatch-36);}.cls-38{fill:url(#New_Gradient_Swatch-37);}.cls-39{fill:url(#New_Gradient_Swatch-38);}.cls-40{fill:url(#New_Gradient_Swatch-39);}.cls-41{fill:url(#New_Gradient_Swatch-40);}.cls-42{fill:url(#New_Gradient_Swatch-41);}.cls-43{fill:url(#New_Gradient_Swatch-42);}.cls-44{fill:url(#New_Gradient_Swatch-43);}.cls-45{fill:url(#New_Gradient_Swatch-44);}.cls-46{fill:url(#New_Gradient_Swatch-45);}.cls-47{fill:url(#New_Gradient_Swatch-46);}.cls-48{fill:url(#New_Gradient_Swatch-47);}.cls-49{fill:url(#New_Gradient_Swatch-48);}.cls-50{fill:url(#New_Gradient_Swatch-49);}.cls-51{fill:url(#New_Gradient_Swatch-50);}.cls-52{fill:url(#New_Gradient_Swatch-51);}.cls-53{fill:url(#New_Gradient_Swatch-52);}.cls-54{fill:url(#New_Gradient_Swatch-53);}.cls-55{fill:url(#New_Gradient_Swatch-54);}.cls-56{fill:url(#New_Gradient_Swatch-55);}.cls-57{fill:url(#New_Gradient_Swatch-56);}.cls-58{fill:url(#New_Gradient_Swatch-57);}.cls-59{fill:url(#New_Gradient_Swatch-58);}.cls-60{fill:url(#New_Gradient_Swatch-59);}.cls-61{fill:url(#New_Gradient_Swatch-60);}.cls-62{fill:url(#New_Gradient_Swatch-61);}.cls-63{fill:url(#New_Gradient_Swatch-62);}.cls-64{fill:url(#New_Gradient_Swatch-63);}.cls-65{fill:url(#New_Gradient_Swatch-64);}.cls-66{fill:url(#New_Gradient_Swatch-65);}.cls-67{fill:url(#New_Gradient_Swatch-66);}.cls-68{fill:url(#New_Gradient_Swatch-67);}.cls-69{fill:url(#New_Gradient_Swatch-68);}.cls-70{fill:url(#New_Gradient_Swatch-69);}.cls-71{fill:url(#New_Gradient_Swatch-70);}.cls-72{fill:url(#New_Gradient_Swatch-71);}.cls-73{fill:url(#New_Gradient_Swatch-72);}.cls-74{fill:url(#New_Gradient_Swatch-73);}.cls-75{fill:url(#New_Gradient_Swatch-74);}.cls-76{fill:url(#New_Gradient_Swatch-75);}.cls-77{fill:url(#New_Gradient_Swatch-76);}.cls-78{fill:url(#New_Gradient_Swatch-77);}.cls-79{fill:url(#New_Gradient_Swatch-78);}.cls-80{fill:url(#New_Gradient_Swatch-79);}.cls-81{fill:url(#New_Gradient_Swatch-80);}.cls-82{fill:url(#New_Gradient_Swatch-81);}.cls-83{fill:url(#New_Gradient_Swatch-82);}.cls-84{fill:url(#New_Gradient_Swatch-83);}.cls-85{fill:url(#New_Gradient_Swatch-84);}.cls-86{fill:url(#New_Gradient_Swatch-85);}.cls-87{fill:url(#New_Gradient_Swatch-86);}.cls-88{fill:url(#New_Gradient_Swatch-87);}.cls-89{fill:url(#New_Gradient_Swatch-88);}.cls-90{fill:url(#New_Gradient_Swatch-89);}.cls-91{fill:url(#New_Gradient_Swatch-90);}.cls-92{fill:url(#New_Gradient_Swatch-91);}.cls-93{fill:url(#New_Gradient_Swatch-92);}.cls-94{fill:url(#New_Gradient_Swatch-93);}.cls-95{fill:url(#New_Gradient_Swatch-94);}.cls-96{fill:url(#New_Gradient_Swatch-95);}.cls-97{fill:url(#New_Gradient_Swatch-96);}.cls-98{fill:url(#New_Gradient_Swatch-97);}.cls-99{fill:url(#New_Gradient_Swatch-98);}.cls-100{fill:url(#New_Gradient_Swatch-99);}.cls-101{fill:url(#New_Gradient_Swatch-100);}.cls-102{fill:url(#New_Gradient_Swatch-101);}.cls-103{fill:url(#New_Gradient_Swatch-102);}.cls-104{fill:url(#New_Gradient_Swatch-103);}.cls-105{fill:url(#New_Gradient_Swatch-104);}.cls-106{fill:url(#New_Gradient_Swatch-105);}.cls-107{fill:url(#New_Gradient_Swatch-106);}.cls-108{fill:url(#New_Gradient_Swatch-107);}.cls-109{fill:url(#New_Gradient_Swatch-108);}.cls-110{fill:url(#New_Gradient_Swatch-109);}.cls-111{fill:url(#New_Gradient_Swatch-110);}.cls-112{fill:url(#New_Gradient_Swatch-111);}.cls-113{fill:url(#New_Gradient_Swatch-112);}.cls-114{fill:url(#New_Gradient_Swatch-113);}.cls-115{fill:url(#New_Gradient_Swatch-114);}.cls-116{fill:url(#New_Gradient_Swatch-115);}.cls-117{fill:url(#New_Gradient_Swatch-116);}.cls-118{fill:url(#New_Gradient_Swatch-117);}.cls-119{fill:url(#New_Gradient_Swatch-118);}.cls-120{fill:url(#New_Gradient_Swatch-119);}.cls-121{fill:url(#New_Gradient_Swatch-120);}.cls-122{fill:url(#New_Gradient_Swatch-121);}.cls-123{fill:url(#New_Gradient_Swatch-122);}.cls-124{fill:url(#New_Gradient_Swatch-123);}.cls-125{fill:url(#New_Gradient_Swatch-124);}.cls-126{fill:url(#New_Gradient_Swatch-125);}.cls-127{fill:url(#New_Gradient_Swatch-126);}.cls-128{fill:url(#New_Gradient_Swatch-127);}.cls-129{fill:url(#New_Gradient_Swatch-128);}.cls-130{fill:url(#New_Gradient_Swatch-129);}.cls-131{fill:url(#New_Gradient_Swatch-130);}.cls-132{fill:url(#New_Gradient_Swatch-131);}.cls-133{fill:url(#New_Gradient_Swatch-132);}.cls-134{fill:url(#New_Gradient_Swatch-133);}.cls-135{fill:url(#New_Gradient_Swatch-134);}.cls-136{fill:url(#New_Gradient_Swatch-135);}.cls-137{fill:url(#New_Gradient_Swatch-136);}.cls-138{fill:url(#New_Gradient_Swatch-137);}.cls-139{fill:url(#New_Gradient_Swatch-138);}.cls-140{fill:url(#New_Gradient_Swatch-139);}.cls-141{fill:url(#New_Gradient_Swatch-140);}.cls-142{fill:url(#New_Gradient_Swatch-141);}.cls-143{fill:url(#New_Gradient_Swatch-142);}.cls-144{fill:url(#New_Gradient_Swatch-143);}.cls-145{fill:url(#New_Gradient_Swatch-144);}.cls-146{fill:url(#New_Gradient_Swatch-145);}.cls-147{fill:url(#New_Gradient_Swatch-146);}.cls-148{fill:url(#New_Gradient_Swatch-147);}.cls-149{fill:url(#New_Gradient_Swatch-148);}.cls-150{fill:url(#New_Gradient_Swatch-149);}.cls-151{fill:url(#New_Gradient_Swatch-150);}.cls-152{fill:url(#New_Gradient_Swatch-151);}.cls-153{fill:url(#New_Gradient_Swatch-152);}.cls-154{fill:url(#New_Gradient_Swatch-153);}.cls-155{fill:url(#New_Gradient_Swatch-154);}.cls-156{fill:url(#New_Gradient_Swatch-155);}.cls-157{fill:url(#New_Gradient_Swatch-156);}.cls-158{fill:url(#New_Gradient_Swatch-157);}.cls-159{fill:url(#New_Gradient_Swatch-158);}.cls-160{fill:url(#New_Gradient_Swatch-159);}.cls-161{fill:url(#New_Gradient_Swatch-160);}.cls-162{fill:url(#New_Gradient_Swatch-161);}.cls-163{fill:url(#New_Gradient_Swatch-162);}.cls-164{fill:url(#New_Gradient_Swatch-163);}.cls-165{fill:url(#New_Gradient_Swatch-164);}.cls-166{fill:url(#New_Gradient_Swatch-165);}.cls-167{fill:url(#New_Gradient_Swatch-166);}.cls-168{fill:url(#New_Gradient_Swatch-167);}.cls-169{fill:url(#New_Gradient_Swatch-168);}.cls-170{fill:url(#New_Gradient_Swatch-169);}.cls-171{fill:url(#New_Gradient_Swatch-170);}.cls-172{fill:url(#New_Gradient_Swatch-171);}.cls-173{fill:url(#New_Gradient_Swatch-172);}.cls-174{fill:url(#New_Gradient_Swatch-173);}.cls-175{fill:url(#New_Gradient_Swatch-174);}.cls-176{fill:url(#New_Gradient_Swatch-175);}.cls-177{fill:url(#New_Gradient_Swatch-176);}.cls-178{fill:url(#New_Gradient_Swatch-177);}.cls-179{fill:url(#New_Gradient_Swatch-178);}.cls-180{fill:url(#New_Gradient_Swatch-179);}.cls-181{fill:url(#New_Gradient_Swatch-180);}.cls-182{fill:url(#New_Gradient_Swatch-181);}.cls-183{fill:url(#New_Gradient_Swatch-182);}.cls-184{fill:url(#New_Gradient_Swatch-183);}.cls-185{fill:url(#New_Gradient_Swatch-184);}.cls-186{fill:url(#New_Gradient_Swatch-185);}.cls-187{fill:url(#New_Gradient_Swatch-186);}.cls-188{fill:url(#New_Gradient_Swatch-187);}.cls-189{fill:url(#New_Gradient_Swatch-188);}.cls-190{fill:url(#New_Gradient_Swatch-189);}.cls-191{fill:url(#New_Gradient_Swatch-190);}.cls-192{fill:url(#New_Gradient_Swatch-191);}.cls-193{fill:url(#New_Gradient_Swatch-192);}.cls-194{fill:url(#New_Gradient_Swatch-193);}.cls-195{fill:url(#New_Gradient_Swatch-194);}.cls-196{fill:url(#New_Gradient_Swatch-195);}.cls-197{fill:url(#New_Gradient_Swatch-196);}.cls-198{fill:url(#New_Gradient_Swatch-197);}.cls-199{fill:url(#New_Gradient_Swatch-198);}.cls-200{fill:url(#New_Gradient_Swatch-199);}.cls-201{fill:url(#New_Gradient_Swatch-200);}.cls-202{fill:url(#New_Gradient_Swatch-201);}.cls-203{fill:url(#New_Gradient_Swatch-202);}</style><linearGradient id="New_Gradient_Swatch" x1="108.84" y1="-106.18" x2="513.2" y2="262.66" gradientUnits="userSpaceOnUse"><stop offset="0" stop-color="#f27aaa"/><stop offset="0.11" stop-color="#f27ca7"/><stop offset="0.2" stop-color="#f3819c"/><stop offset="0.29" stop-color="#f5898a"/><stop offset="0.37" stop-color="#f79571"/><stop offset="0.46" stop-color="#f9a551"/><stop offset="0.51" stop-color="#fbb03a"/><stop offset="0.53" stop-color="#f2a642"/><stop offset="0.62" stop-color="#d18261"/><stop offset="0.72" stop-color="#b7667a"/><stop offset="0.81" stop-color="#a4528b"/><stop offset="0.91" stop-color="#994696"/><stop offset="1" stop-color="#954299"/></linearGradient><linearGradient id="New_Gradient_Swatch-2" x1="119.92" y1="-118.33" x2="524.28" y2="250.52" xlink:href="#New_Gradient_Swatch"/><linearGradient id="New_Gradient_Swatch-3" x1="97.81" y1="-94.09" x2="502.17" y2="274.75" xlink:href="#New_Gradient_Swatch"/><linearGradient id="New_Gradient_Swatch-4" x1="103.53" y1="-100.36" x2="507.89" y2="268.48" xlink:href="#New_Gradient_Swatch"/><linearGradient id="New_Gradient_Swatch-5" x1="106.17" y1="-103.26" x2="510.53" y2="265.58" xlink:href="#New_Gradient_Swatch"/><linearGradient id="New_Gradient_Swatch-6" x1="113.57" y1="-111.37" x2="517.93" y2="257.47" xlink:href="#New_Gradient_Swatch"/><linearGradient id="New_Gradient_Swatch-7" x1="93.97" y1="-89.88" x2="498.33" y2="278.96" xlink:href="#New_Gradient_Swatch"/><linearGradient id="New_Gradient_Swatch-8" x1="99.49" y1="-95.93" x2="503.85" y2="272.91" xlink:href="#New_Gradient_Swatch"/><linearGradient id="New_Gradient_Swatch-9" x1="90.8" y1="-86.4" x2="495.16" y2="282.44" xlink:href="#New_Gradient_Swatch"/><linearGradient id="New_Gradient_Swatch-10" x1="90.51" y1="-86.09" x2="494.87" y2="282.75" xlink:href="#New_Gradient_Swatch"/><linearGradient id="New_Gradient_Swatch-11" x1="93.76" y1="-89.64" x2="498.11" y2="279.2" xlink:href="#New_Gradient_Swatch"/><linearGradient id="New_Gradient_Swatch-12" x1="88.44" y1="-83.82" x2="492.8" y2="285.02" xlink:href="#New_Gradient_Swatch"/><linearGradient id="New_Gradient_Swatch-13" x1="95.07" y1="-91.09" x2="499.43" y2="277.75" xlink:href="#New_Gradient_Swatch"/><linearGradient id="New_Gradient_Swatch-14" x1="88.56" y1="-83.95" x2="492.92" y2="284.9" xlink:href="#New_Gradient_Swatch"/><linearGradient id="New_Gradient_Swatch-15" x1="84.56" y1="-79.57" x2="488.92" y2="289.27" xlink:href="#New_Gradient_Swatch"/><linearGradient id="New_Gradient_Swatch-16" x1="84.46" y1="-79.46" x2="488.82" y2="289.38" xlink:href="#New_Gradient_Swatch"/><linearGradient id="New_Gradient_Swatch-17" x1="84.25" y1="-79.22" x2="488.61" y2="289.62" xlink:href="#New_Gradient_Swatch"/><linearGradient id="New_Gradient_Swatch-18" x1="86.06" y1="-81.21" x2="490.42" y2="287.63" xlink:href="#New_Gradient_Swatch"/><linearGradient id="New_Gradient_Swatch-19" x1="77.13" y1="-71.42" x2="481.49" y2="297.42" xlink:href="#New_Gradient_Swatch"/><linearGradient id="New_Gradient_Swatch-20" x1="56.7" y1="-49.02" x2="461.06" y2="319.82" xlink:href="#New_Gradient_Swatch"/><linearGradient id="New_Gradient_Swatch-21" x1="83.07" y1="-77.93" x2="487.43" y2="290.91" xlink:href="#New_Gradient_Swatch"/><linearGradient id="New_Gradient_Swatch-22" x1="79.67" y1="-74.2" x2="484.03" y2="294.64" xlink:href="#New_Gradient_Swatch"/><linearGradient id="New_Gradient_Swatch-23" x1="69.84" y1="-63.43" x2="474.2" y2="305.42" xlink:href="#New_Gradient_Swatch"/><linearGradient id="New_Gradient_Swatch-24" x1="62.26" y1="-55.11" x2="466.62" y2="313.73" xlink:href="#New_Gradient_Swatch"/><linearGradient id="New_Gradient_Swatch-25" x1="32.8" y1="-22.81" x2="437.15" y2="346.03" xlink:href="#New_Gradient_Swatch"/><linearGradient id="New_Gradient_Swatch-26" x1="46.42" y1="-37.75" x2="450.78" y2="331.09" xlink:href="#New_Gradient_Swatch"/><linearGradient id="New_Gradient_Swatch-27" x1="38.19" y1="-28.73" x2="442.55" y2="340.11" xlink:href="#New_Gradient_Swatch"/><linearGradient id="New_Gradient_Swatch-28" x1="76.82" y1="-71.08" x2="481.18" y2="297.76" xlink:href="#New_Gradient_Swatch"/><linearGradient id="New_Gradient_Swatch-29" x1="73.35" y1="-67.27" x2="477.7" y2="301.57" xlink:href="#New_Gradient_Swatch"/><linearGradient id="New_Gradient_Swatch-30" x1="71.91" y1="-65.7" x2="476.27" y2="303.14" xlink:href="#New_Gradient_Swatch"/><linearGradient id="New_Gradient_Swatch-31" x1="53.97" y1="-46.02" x2="458.33" y2="322.82" xlink:href="#New_Gradient_Swatch"/><linearGradient id="New_Gradient_Swatch-32" x1="59.21" y1="-51.77" x2="463.57" y2="317.07" xlink:href="#New_Gradient_Swatch"/><linearGradient id="New_Gradient_Swatch-33" x1="30.71" y1="-20.53" x2="435.07" y2="348.31" xlink:href="#New_Gradient_Swatch"/><linearGradient id="New_Gradient_Swatch-34" x1="3.5" y1="-8.97" x2="407.86" y2="359.87" xlink:href="#New_Gradient_Swatch"/><linearGradient id="New_Gradient_Swatch-35" x1="6.69" y1="5.8" x2="411.05" y2="374.64" xlink:href="#New_Gradient_Swatch"/><linearGradient id="New_Gradient_Swatch-36" x1="-20.32" y1="35.42" x2="384.03" y2="404.26" xlink:href="#New_Gradient_Swatch"/><linearGradient id="New_Gradient_Swatch-37" x1="21.33" y1="-10.24" x2="425.68" y2="358.6" xlink:href="#New_Gradient_Swatch"/><linearGradient id="New_Gradient_Swatch-38" x1="12.2" y1="-0.23" x2="416.56" y2="368.61" xlink:href="#New_Gradient_Swatch"/><linearGradient id="New_Gradient_Swatch-39" x1="-4.27" y1="17.82" x2="400.09" y2="386.66" xlink:href="#New_Gradient_Swatch"/><linearGradient id="New_Gradient_Swatch-40" x1="-14.48" y1="29.01" x2="389.88" y2="397.85" xlink:href="#New_Gradient_Swatch"/><linearGradient id="New_Gradient_Swatch-41" x1="-46.98" y1="64.64" x2="357.38" y2="433.48" xlink:href="#New_Gradient_Swatch"/><linearGradient id="New_Gradient_Swatch-42" x1="-29.27" y1="45.23" x2="375.09" y2="414.07" xlink:href="#New_Gradient_Swatch"/><linearGradient id="New_Gradient_Swatch-43" x1="-40.64" y1="57.69" x2="363.72" y2="426.53" xlink:href="#New_Gradient_Swatch"/><linearGradient id="New_Gradient_Swatch-44" x1="-72.03" y1="92.1" x2="332.33" y2="460.94" xlink:href="#New_Gradient_Swatch"/><linearGradient id="New_Gradient_Swatch-45" x1="-94.02" y1="116.21" x2="310.34" y2="485.05" xlink:href="#New_Gradient_Swatch"/><linearGradient id="New_Gradient_Swatch-46" x1="-52.7" y1="70.92" x2="351.66" y2="439.76" xlink:href="#New_Gradient_Swatch"/><linearGradient id="New_Gradient_Swatch-47" x1="-65.14" y1="84.56" x2="339.21" y2="453.4" xlink:href="#New_Gradient_Swatch"/><linearGradient id="New_Gradient_Swatch-48" x1="-73.73" y1="93.98" x2="330.62" y2="462.82" xlink:href="#New_Gradient_Swatch"/><linearGradient id="New_Gradient_Swatch-49" x1="-86.9" y1="108.4" x2="317.46" y2="477.24" xlink:href="#New_Gradient_Swatch"/><linearGradient id="New_Gradient_Swatch-50" x1="-111.27" y1="135.13" x2="293.09" y2="503.97" xlink:href="#New_Gradient_Swatch"/><linearGradient id="New_Gradient_Swatch-51" x1="-91.29" y1="113.22" x2="313.07" y2="482.06" xlink:href="#New_Gradient_Swatch"/><linearGradient id="New_Gradient_Swatch-52" x1="-104.38" y1="127.57" x2="299.98" y2="496.41" xlink:href="#New_Gradient_Swatch"/><linearGradient id="New_Gradient_Swatch-53" x1="82.21" y1="-76.99" x2="486.57" y2="291.85" xlink:href="#New_Gradient_Swatch"/><linearGradient id="New_Gradient_Swatch-54" x1="86.35" y1="-81.52" x2="490.7" y2="287.32" xlink:href="#New_Gradient_Swatch"/><linearGradient id="New_Gradient_Swatch-55" x1="76.4" y1="-70.62" x2="480.76" y2="298.22" xlink:href="#New_Gradient_Swatch"/><linearGradient id="New_Gradient_Swatch-56" x1="85.67" y1="-80.78" x2="490.03" y2="288.06" xlink:href="#New_Gradient_Swatch"/><linearGradient id="New_Gradient_Swatch-57" x1="81.28" y1="-75.97" x2="485.64" y2="292.87" xlink:href="#New_Gradient_Swatch"/><linearGradient id="New_Gradient_Swatch-58" x1="56.52" y1="-48.82" x2="460.88" y2="320.02" xlink:href="#New_Gradient_Swatch"/><linearGradient id="New_Gradient_Swatch-59" x1="76.79" y1="-71.04" x2="481.14" y2="297.8" xlink:href="#New_Gradient_Swatch"/><linearGradient id="New_Gradient_Swatch-60" x1="67.16" y1="-60.49" x2="471.52" y2="308.35" xlink:href="#New_Gradient_Swatch"/><linearGradient id="New_Gradient_Swatch-61" x1="89.72" y1="-85.23" x2="494.08" y2="283.62" xlink:href="#New_Gradient_Swatch"/><linearGradient id="New_Gradient_Swatch-62" x1="91.93" y1="-87.64" x2="496.29" y2="281.2" xlink:href="#New_Gradient_Swatch"/><linearGradient id="New_Gradient_Swatch-63" x1="89.97" y1="-85.49" x2="494.33" y2="283.35" xlink:href="#New_Gradient_Swatch"/><linearGradient id="New_Gradient_Swatch-64" x1="93.9" y1="-89.8" x2="498.26" y2="279.04" xlink:href="#New_Gradient_Swatch"/><linearGradient id="New_Gradient_Swatch-65" x1="93.83" y1="-89.72" x2="498.19" y2="279.12" xlink:href="#New_Gradient_Swatch"/><linearGradient id="New_Gradient_Swatch-66" x1="92.22" y1="-87.96" x2="496.57" y2="280.88" xlink:href="#New_Gradient_Swatch"/><linearGradient id="New_Gradient_Swatch-67" x1="103.06" y1="-99.85" x2="507.42" y2="268.99" xlink:href="#New_Gradient_Swatch"/><linearGradient id="New_Gradient_Swatch-68" x1="100.61" y1="-97.16" x2="504.97" y2="271.68" xlink:href="#New_Gradient_Swatch"/><linearGradient id="New_Gradient_Swatch-69" x1="92.97" y1="-88.78" x2="497.32" y2="280.06" xlink:href="#New_Gradient_Swatch"/><linearGradient id="New_Gradient_Swatch-70" x1="100.85" y1="-97.42" x2="505.21" y2="271.42" xlink:href="#New_Gradient_Swatch"/><linearGradient id="New_Gradient_Swatch-71" x1="95.88" y1="-91.97" x2="500.24" y2="276.87" xlink:href="#New_Gradient_Swatch"/><linearGradient id="New_Gradient_Swatch-72" x1="98.39" y1="-94.72" x2="502.75" y2="274.12" xlink:href="#New_Gradient_Swatch"/><linearGradient id="New_Gradient_Swatch-73" x1="113.27" y1="-111.04" x2="517.63" y2="257.8" xlink:href="#New_Gradient_Swatch"/><linearGradient id="New_Gradient_Swatch-74" x1="120.91" y1="-119.42" x2="525.27" y2="249.42" xlink:href="#New_Gradient_Swatch"/><linearGradient id="New_Gradient_Swatch-75" x1="106.66" y1="-103.79" x2="511.02" y2="265.05" xlink:href="#New_Gradient_Swatch"/><linearGradient id="New_Gradient_Swatch-76" x1="111.2" y1="-108.77" x2="515.56" y2="260.07" xlink:href="#New_Gradient_Swatch"/><linearGradient id="New_Gradient_Swatch-77" x1="118.64" y1="-116.92" x2="523" y2="251.92" xlink:href="#New_Gradient_Swatch"/><linearGradient id="New_Gradient_Swatch-78" x1="121.43" y1="-119.98" x2="525.79" y2="248.86" xlink:href="#New_Gradient_Swatch"/><linearGradient id="New_Gradient_Swatch-79" x1="123.44" y1="-122.18" x2="527.79" y2="246.66" xlink:href="#New_Gradient_Swatch"/><linearGradient id="New_Gradient_Swatch-80" x1="125.28" y1="-124.2" x2="529.64" y2="244.64" xlink:href="#New_Gradient_Swatch"/><linearGradient id="New_Gradient_Swatch-81" x1="126.64" y1="-125.69" x2="530.99" y2="243.15" xlink:href="#New_Gradient_Swatch"/><linearGradient id="New_Gradient_Swatch-82" x1="90.71" y1="-86.31" x2="495.07" y2="282.53" xlink:href="#New_Gradient_Swatch"/><linearGradient id="New_Gradient_Swatch-83" x1="87.86" y1="-83.18" x2="492.22" y2="285.66" xlink:href="#New_Gradient_Swatch"/><linearGradient id="New_Gradient_Swatch-84" x1="111.18" y1="-108.75" x2="515.54" y2="260.09" xlink:href="#New_Gradient_Swatch"/><linearGradient id="New_Gradient_Swatch-85" x1="104.07" y1="-100.95" x2="508.42" y2="267.89" xlink:href="#New_Gradient_Swatch"/><linearGradient id="New_Gradient_Swatch-86" x1="115.28" y1="-113.24" x2="519.63" y2="255.6" xlink:href="#New_Gradient_Swatch"/><linearGradient id="New_Gradient_Swatch-87" x1="103.85" y1="-100.71" x2="508.21" y2="268.13" xlink:href="#New_Gradient_Swatch"/><linearGradient id="New_Gradient_Swatch-88" x1="82.62" y1="-77.44" x2="486.98" y2="291.4" xlink:href="#New_Gradient_Swatch"/><linearGradient id="New_Gradient_Swatch-89" x1="114.67" y1="-112.57" x2="519.03" y2="256.27" xlink:href="#New_Gradient_Swatch"/><linearGradient id="New_Gradient_Swatch-90" x1="101.19" y1="-97.79" x2="505.55" y2="271.05" xlink:href="#New_Gradient_Swatch"/><linearGradient id="New_Gradient_Swatch-91" x1="33.26" y1="-23.33" x2="437.62" y2="345.51" xlink:href="#New_Gradient_Swatch"/><linearGradient id="New_Gradient_Swatch-92" x1="9.58" y1="2.64" x2="413.94" y2="371.48" xlink:href="#New_Gradient_Swatch"/><linearGradient id="New_Gradient_Swatch-93" x1="59.87" y1="-52.49" x2="464.23" y2="316.35" xlink:href="#New_Gradient_Swatch"/><linearGradient id="New_Gradient_Swatch-94" x1="46.62" y1="-37.97" x2="450.98" y2="330.87" xlink:href="#New_Gradient_Swatch"/><linearGradient id="New_Gradient_Swatch-95" x1="42.29" y1="-33.22" x2="446.65" y2="335.62" xlink:href="#New_Gradient_Swatch"/><linearGradient id="New_Gradient_Swatch-96" x1="25.61" y1="-14.93" x2="429.96" y2="353.91" xlink:href="#New_Gradient_Swatch"/><linearGradient id="New_Gradient_Swatch-97" x1="-13.61" y1="28.06" x2="390.75" y2="396.9" xlink:href="#New_Gradient_Swatch"/><linearGradient id="New_Gradient_Swatch-98" x1="24.72" y1="-13.96" x2="429.08" y2="354.88" xlink:href="#New_Gradient_Swatch"/><linearGradient id="New_Gradient_Swatch-99" x1="4.88" y1="7.79" x2="409.24" y2="376.63" xlink:href="#New_Gradient_Swatch"/><linearGradient id="New_Gradient_Swatch-100" x1="71.63" y1="-65.39" x2="475.99" y2="303.46" xlink:href="#New_Gradient_Swatch"/><linearGradient id="New_Gradient_Swatch-101" x1="58.24" y1="-50.7" x2="462.6" y2="318.14" xlink:href="#New_Gradient_Swatch"/><linearGradient id="New_Gradient_Swatch-102" x1="86.27" y1="-81.44" x2="490.63" y2="287.4" xlink:href="#New_Gradient_Swatch"/><linearGradient id="New_Gradient_Swatch-103" x1="80.73" y1="-75.37" x2="485.09" y2="293.47" xlink:href="#New_Gradient_Swatch"/><linearGradient id="New_Gradient_Swatch-104" x1="83.15" y1="-78.02" x2="487.51" y2="290.82" xlink:href="#New_Gradient_Swatch"/><linearGradient id="New_Gradient_Swatch-105" x1="72.2" y1="-66.02" x2="476.56" y2="302.82" xlink:href="#New_Gradient_Swatch"/><linearGradient id="New_Gradient_Swatch-106" x1="44.51" y1="-35.66" x2="448.87" y2="333.18" xlink:href="#New_Gradient_Swatch"/><linearGradient id="New_Gradient_Swatch-107" x1="78.95" y1="-73.42" x2="483.31" y2="295.42" xlink:href="#New_Gradient_Swatch"/><linearGradient id="New_Gradient_Swatch-108" x1="62.96" y1="-55.89" x2="467.32" y2="312.95" xlink:href="#New_Gradient_Swatch"/><linearGradient id="New_Gradient_Swatch-109" x1="30.79" y1="-20.62" x2="435.15" y2="348.22" xlink:href="#New_Gradient_Swatch"/><linearGradient id="New_Gradient_Swatch-110" x1="17.25" y1="-5.77" x2="421.61" y2="363.07" xlink:href="#New_Gradient_Swatch"/><linearGradient id="New_Gradient_Swatch-111" x1="73.7" y1="-67.66" x2="478.06" y2="301.18" xlink:href="#New_Gradient_Swatch"/><linearGradient id="New_Gradient_Swatch-112" x1="53.21" y1="-45.2" x2="457.57" y2="323.64" xlink:href="#New_Gradient_Swatch"/><linearGradient id="New_Gradient_Swatch-113" x1="67.25" y1="-60.58" x2="471.6" y2="308.26" xlink:href="#New_Gradient_Swatch"/><linearGradient id="New_Gradient_Swatch-114" x1="42.99" y1="-33.99" x2="447.35" y2="334.85" xlink:href="#New_Gradient_Swatch"/><linearGradient id="New_Gradient_Swatch-115" x1="3.9" y1="8.87" x2="408.26" y2="377.71" xlink:href="#New_Gradient_Swatch"/><linearGradient id="New_Gradient_Swatch-116" x1="59.28" y1="-51.85" x2="463.64" y2="316.99" xlink:href="#New_Gradient_Swatch"/><linearGradient id="New_Gradient_Swatch-117" x1="32.18" y1="-22.14" x2="436.54" y2="346.7" xlink:href="#New_Gradient_Swatch"/><linearGradient id="New_Gradient_Swatch-118" x1="-35.5" y1="52.06" x2="368.86" y2="420.9" xlink:href="#New_Gradient_Swatch"/><linearGradient id="New_Gradient_Swatch-119" x1="-55.44" y1="73.92" x2="348.91" y2="442.76" xlink:href="#New_Gradient_Swatch"/><linearGradient id="New_Gradient_Swatch-120" x1="7.64" y1="4.76" x2="412" y2="373.6" xlink:href="#New_Gradient_Swatch"/><linearGradient id="New_Gradient_Swatch-121" x1="-14.92" y1="29.49" x2="389.44" y2="398.33" xlink:href="#New_Gradient_Swatch"/><linearGradient id="New_Gradient_Swatch-122" x1="-8.62" y1="22.59" x2="395.74" y2="391.43" xlink:href="#New_Gradient_Swatch"/><linearGradient id="New_Gradient_Swatch-123" x1="-33.3" y1="49.65" x2="371.06" y2="418.49" xlink:href="#New_Gradient_Swatch"/><linearGradient id="New_Gradient_Swatch-124" x1="-72.8" y1="92.96" x2="331.55" y2="461.8" xlink:href="#New_Gradient_Swatch"/><linearGradient id="New_Gradient_Swatch-125" x1="-23.92" y1="39.36" x2="380.44" y2="408.2" xlink:href="#New_Gradient_Swatch"/><linearGradient id="New_Gradient_Swatch-126" x1="-49.95" y1="67.9" x2="354.41" y2="436.74" xlink:href="#New_Gradient_Swatch"/><linearGradient id="New_Gradient_Swatch-127" x1="-122.71" y1="147.67" x2="281.65" y2="516.51" xlink:href="#New_Gradient_Swatch"/><linearGradient id="New_Gradient_Swatch-128" x1="-128.3" y1="153.79" x2="276.06" y2="522.63" xlink:href="#New_Gradient_Swatch"/><linearGradient id="New_Gradient_Swatch-129" x1="-104.29" y1="127.47" x2="300.07" y2="496.31" xlink:href="#New_Gradient_Swatch"/><linearGradient id="New_Gradient_Swatch-130" x1="-116.49" y1="140.85" x2="287.87" y2="509.69" xlink:href="#New_Gradient_Swatch"/><linearGradient id="New_Gradient_Swatch-131" x1="-112.32" y1="136.28" x2="292.04" y2="505.12" xlink:href="#New_Gradient_Swatch"/><linearGradient id="New_Gradient_Swatch-132" x1="-123.1" y1="148.09" x2="281.26" y2="516.93" xlink:href="#New_Gradient_Swatch"/><linearGradient id="New_Gradient_Swatch-133" x1="-128.7" y1="154.23" x2="275.66" y2="523.07" xlink:href="#New_Gradient_Swatch"/><linearGradient id="New_Gradient_Swatch-134" x1="-115.88" y1="140.18" x2="288.48" y2="509.02" xlink:href="#New_Gradient_Swatch"/><linearGradient id="New_Gradient_Swatch-135" x1="-125.25" y1="150.45" x2="279.11" y2="519.29" xlink:href="#New_Gradient_Swatch"/><linearGradient id="New_Gradient_Swatch-136" x1="-124.19" y1="149.29" x2="280.17" y2="518.13" xlink:href="#New_Gradient_Swatch"/><linearGradient id="New_Gradient_Swatch-137" x1="-116.16" y1="140.48" x2="288.2" y2="509.32" xlink:href="#New_Gradient_Swatch"/><linearGradient id="New_Gradient_Swatch-138" x1="-122.09" y1="146.98" x2="282.27" y2="515.82" xlink:href="#New_Gradient_Swatch"/><linearGradient id="New_Gradient_Swatch-139" x1="-111.94" y1="135.86" x2="292.42" y2="504.7" xlink:href="#New_Gradient_Swatch"/><linearGradient id="New_Gradient_Swatch-140" x1="-115.44" y1="139.69" x2="288.92" y2="508.54" xlink:href="#New_Gradient_Swatch"/><linearGradient id="New_Gradient_Swatch-141" x1="-106.29" y1="129.66" x2="298.07" y2="498.5" xlink:href="#New_Gradient_Swatch"/><linearGradient id="New_Gradient_Swatch-142" x1="-86.59" y1="108.07" x2="317.77" y2="476.91" xlink:href="#New_Gradient_Swatch"/><linearGradient id="New_Gradient_Swatch-143" x1="-96.2" y1="118.61" x2="308.16" y2="487.45" xlink:href="#New_Gradient_Swatch"/><linearGradient id="New_Gradient_Swatch-144" x1="-37.99" y1="54.79" x2="366.37" y2="423.63" xlink:href="#New_Gradient_Swatch"/><linearGradient id="New_Gradient_Swatch-145" x1="-64.14" y1="83.46" x2="340.22" y2="452.3" xlink:href="#New_Gradient_Swatch"/><linearGradient id="New_Gradient_Swatch-146" x1="-50.23" y1="68.2" x2="354.13" y2="437.04" xlink:href="#New_Gradient_Swatch"/><linearGradient id="New_Gradient_Swatch-147" x1="-75.25" y1="95.64" x2="329.11" y2="464.48" xlink:href="#New_Gradient_Swatch"/><linearGradient id="New_Gradient_Swatch-148" x1="-101.92" y1="124.87" x2="302.44" y2="493.71" xlink:href="#New_Gradient_Swatch"/><linearGradient id="New_Gradient_Swatch-149" x1="-60.29" y1="79.24" x2="344.07" y2="448.08" xlink:href="#New_Gradient_Swatch"/><linearGradient id="New_Gradient_Swatch-150" x1="-83.24" y1="104.39" x2="321.12" y2="473.23" xlink:href="#New_Gradient_Swatch"/><linearGradient id="New_Gradient_Swatch-151" x1="-9.36" y1="23.4" x2="395" y2="392.24" xlink:href="#New_Gradient_Swatch"/><linearGradient id="New_Gradient_Swatch-152" x1="-22.1" y1="37.37" x2="382.26" y2="406.21" xlink:href="#New_Gradient_Swatch"/><linearGradient id="New_Gradient_Swatch-153" x1="49.32" y1="-40.93" x2="453.68" y2="327.91" xlink:href="#New_Gradient_Swatch"/><linearGradient id="New_Gradient_Swatch-154" x1="20.49" y1="-9.33" x2="424.85" y2="359.51" xlink:href="#New_Gradient_Swatch"/><linearGradient id="New_Gradient_Swatch-155" x1="37.01" y1="-27.43" x2="441.37" y2="341.41" xlink:href="#New_Gradient_Swatch"/><linearGradient id="New_Gradient_Swatch-156" x1="7.88" y1="4.5" x2="412.24" y2="373.34" xlink:href="#New_Gradient_Swatch"/><linearGradient id="New_Gradient_Swatch-157" x1="-33.88" y1="50.28" x2="370.48" y2="419.12" xlink:href="#New_Gradient_Swatch"/><linearGradient id="New_Gradient_Swatch-158" x1="22.71" y1="-11.76" x2="427.07" y2="357.08" xlink:href="#New_Gradient_Swatch"/><linearGradient id="New_Gradient_Swatch-159" x1="-5.29" y1="18.94" x2="399.07" y2="387.78" xlink:href="#New_Gradient_Swatch"/><linearGradient id="New_Gradient_Swatch-160" x1="-44.78" y1="62.23" x2="359.58" y2="431.07" xlink:href="#New_Gradient_Swatch"/><linearGradient id="New_Gradient_Swatch-161" x1="-55.12" y1="73.57" x2="349.24" y2="442.41" xlink:href="#New_Gradient_Swatch"/><linearGradient id="New_Gradient_Swatch-162" x1="7.07" y1="5.39" x2="411.43" y2="374.23" xlink:href="#New_Gradient_Swatch"/><linearGradient id="New_Gradient_Swatch-163" x1="-18.73" y1="33.67" x2="385.63" y2="402.51" xlink:href="#New_Gradient_Swatch"/><linearGradient id="New_Gradient_Swatch-164" x1="-9.69" y1="23.76" x2="394.67" y2="392.6" xlink:href="#New_Gradient_Swatch"/><linearGradient id="New_Gradient_Swatch-165" x1="-32.57" y1="48.84" x2="371.79" y2="417.68" xlink:href="#New_Gradient_Swatch"/><linearGradient id="New_Gradient_Swatch-166" x1="-65.1" y1="84.51" x2="339.26" y2="453.35" xlink:href="#New_Gradient_Swatch"/><linearGradient id="New_Gradient_Swatch-167" x1="-27.34" y1="43.12" x2="377.02" y2="411.96" xlink:href="#New_Gradient_Swatch"/><linearGradient id="New_Gradient_Swatch-168" x1="-46.73" y1="64.37" x2="357.63" y2="433.21" xlink:href="#New_Gradient_Swatch"/><linearGradient id="New_Gradient_Swatch-169" x1="-104.49" y1="127.69" x2="299.87" y2="496.53" xlink:href="#New_Gradient_Swatch"/><linearGradient id="New_Gradient_Swatch-170" x1="-104.82" y1="128.06" x2="299.54" y2="496.9" xlink:href="#New_Gradient_Swatch"/><linearGradient id="New_Gradient_Swatch-171" x1="-68.55" y1="88.29" x2="335.81" y2="457.13" xlink:href="#New_Gradient_Swatch"/><linearGradient id="New_Gradient_Swatch-172" x1="-88.56" y1="110.23" x2="315.8" y2="479.07" xlink:href="#New_Gradient_Swatch"/><linearGradient id="New_Gradient_Swatch-173" x1="-75.35" y1="95.75" x2="329" y2="464.59" xlink:href="#New_Gradient_Swatch"/><linearGradient id="New_Gradient_Swatch-174" x1="-91.63" y1="113.59" x2="312.73" y2="482.43" xlink:href="#New_Gradient_Swatch"/><linearGradient id="New_Gradient_Swatch-175" x1="-101.78" y1="124.72" x2="302.58" y2="493.56" xlink:href="#New_Gradient_Swatch"/><linearGradient id="New_Gradient_Swatch-176" x1="-80.95" y1="101.89" x2="323.41" y2="470.73" xlink:href="#New_Gradient_Swatch"/><linearGradient id="New_Gradient_Swatch-177" x1="-93.41" y1="115.55" x2="310.95" y2="484.39" xlink:href="#New_Gradient_Swatch"/><linearGradient id="New_Gradient_Swatch-178" x1="74.51" y1="-68.55" x2="478.87" y2="300.29" xlink:href="#New_Gradient_Swatch"/><linearGradient id="New_Gradient_Swatch-179" x1="63.05" y1="-55.98" x2="467.41" y2="312.86" xlink:href="#New_Gradient_Swatch"/><linearGradient id="New_Gradient_Swatch-180" x1="110.68" y1="-108.2" x2="515.04" y2="260.64" xlink:href="#New_Gradient_Swatch"/><linearGradient id="New_Gradient_Swatch-181" x1="95.15" y1="-91.17" x2="499.51" y2="277.67" xlink:href="#New_Gradient_Swatch"/><linearGradient id="New_Gradient_Swatch-182" x1="101.96" y1="-98.64" x2="506.32" y2="270.2" xlink:href="#New_Gradient_Swatch"/><linearGradient id="New_Gradient_Swatch-183" x1="84.99" y1="-80.04" x2="489.35" y2="288.8" xlink:href="#New_Gradient_Swatch"/><linearGradient id="New_Gradient_Swatch-184" x1="48.39" y1="-39.91" x2="452.75" y2="328.93" xlink:href="#New_Gradient_Swatch"/><linearGradient id="New_Gradient_Swatch-185" x1="88.16" y1="-83.51" x2="492.52" y2="285.33" xlink:href="#New_Gradient_Swatch"/><linearGradient id="New_Gradient_Swatch-186" x1="70.55" y1="-64.2" x2="474.91" y2="304.64" xlink:href="#New_Gradient_Swatch"/><linearGradient id="New_Gradient_Swatch-187" x1="120.81" y1="-119.3" x2="525.17" y2="249.54" xlink:href="#New_Gradient_Swatch"/><linearGradient id="New_Gradient_Swatch-188" x1="113.13" y1="-110.89" x2="517.49" y2="257.95" xlink:href="#New_Gradient_Swatch"/><linearGradient id="New_Gradient_Swatch-189" x1="125.99" y1="-124.98" x2="530.35" y2="243.86" xlink:href="#New_Gradient_Swatch"/><linearGradient id="New_Gradient_Swatch-190" x1="95.07" y1="-109.35" x2="499.43" y2="259.49" xlink:href="#New_Gradient_Swatch"/><linearGradient id="New_Gradient_Swatch-191" x1="31.22" y1="-21.08" x2="435.58" y2="347.76" xlink:href="#New_Gradient_Swatch"/><linearGradient id="New_Gradient_Swatch-192" x1="12.23" y1="-0.27" x2="416.59" y2="368.57" xlink:href="#New_Gradient_Swatch"/><linearGradient id="New_Gradient_Swatch-193" x1="68.64" y1="-62.11" x2="473" y2="306.73" xlink:href="#New_Gradient_Swatch"/><linearGradient id="New_Gradient_Swatch-194" x1="52.52" y1="-44.44" x2="456.88" y2="324.4" xlink:href="#New_Gradient_Swatch"/><linearGradient id="New_Gradient_Swatch-195" x1="31.64" y1="-21.55" x2="436" y2="347.29" xlink:href="#New_Gradient_Swatch"/><linearGradient id="New_Gradient_Swatch-196" x1="-8.18" y1="22.1" x2="396.18" y2="390.94" xlink:href="#New_Gradient_Swatch"/><linearGradient id="New_Gradient_Swatch-197" x1="3.38" y1="-8.83" x2="407.74" y2="360.01" xlink:href="#New_Gradient_Swatch"/><linearGradient id="New_Gradient_Swatch-198" x1="-84.88" y1="106.19" x2="319.48" y2="475.03" xlink:href="#New_Gradient_Swatch"/><linearGradient id="New_Gradient_Swatch-199" x1="-99.86" y1="104.34" x2="304.5" y2="473.18" xlink:href="#New_Gradient_Swatch"/><linearGradient id="New_Gradient_Swatch-200" x1="-73.23" y1="93.42" x2="331.13" y2="462.26" xlink:href="#New_Gradient_Swatch"/><linearGradient id="New_Gradient_Swatch-201" x1="-42.38" y1="59.6" x2="361.98" y2="428.44" xlink:href="#New_Gradient_Swatch"/><linearGradient id="New_Gradient_Swatch-202" x1="-58.7" y1="77.49" x2="345.66" y2="446.33" xlink:href="#New_Gradient_Swatch"/></defs><title>circle</title><g class="cls-1"><path class="cls-2" d="M262.06,20.52a146.79,146.79,0,0,0-32-4.13l-1.37-.17c15.71.44,16.65.46,26.63,2.08,2,.67,4.71,1.5,6.7,2.22" transform="translate(-7.94 -9.57)"/><path class="cls-3" d="M296.23,33.75l1.24.7A140.13,140.13,0,0,0,269,22.39c-2.43-.91-5.66-2.15-8.11-3,5,1.39,11.65,3.41,16.52,5.23,5.73,2.58,13.32,6.14,18.86,9.11" transform="translate(-7.94 -9.57)"/><path class="cls-4" d="M231.42,13.37c-11.91.86-12.62.91-22,3-1.45.29-3.4.64-4.83,1l-.47-.1c4-1.49,9.46-3.34,13.61-4.48a101.59,101.59,0,0,1,13.73.59" transform="translate(-7.94 -9.57)"/><path class="cls-5" d="M251.46,17.19c-14.21-1.49-15.06-1.58-26-1.28a79.9,79.9,0,0,0-13.37.09c13.61-2.06,14.42-2.19,22.88-2.2a148.62,148.62,0,0,1,16.53,3.39" transform="translate(-7.94 -9.57)"/><path class="cls-6" d="M242.1,13.76l5.07,1.11c-3.38-.55-7.9-1.24-11.32-1.47a121.74,121.74,0,0,0-14.69-1.3,72.74,72.74,0,0,1,10.33-.24c3.19.53,7.45,1.24,10.61,1.9" transform="translate(-7.94 -9.57)"/><path class="cls-7" d="M255.85,17.13c4.78,1.47,11.11,3.56,15.82,5.24-4.42-1.42-10.34-3.2-14.86-4.24A161.66,161.66,0,0,0,239.54,14c3.5.46,8.18,1.07,11.62,1.86l4.69,1.27" transform="translate(-7.94 -9.57)"/><path class="cls-8" d="M215,12.93c-3.39,1.19-7.87,2.86-11.16,4.29l-1-.13,3-2.35A34.42,34.42,0,0,1,215,12.93" transform="translate(-7.94 -9.57)"/><path class="cls-9" d="M220.17,10.47l.51,0c2.3.25,5.36.59,7.66.89a62.82,62.82,0,0,0-10.07.69c-6.09.3-6.33.31-10.3,1.13,4.47-2.7,4.73-2.86,6.7-3.16,1.65.12,3.86.24,5.5.4" transform="translate(-7.94 -9.57)"/><path class="cls-10" d="M204.42,15.39l-1.75,1.68-.51,0a20.08,20.08,0,0,1,2.26-1.65" transform="translate(-7.94 -9.57)"/><path class="cls-11" d="M200,10.83c1.4,3,1.42,3,1.34,6.18q-.54,0-1.08,0a38.38,38.38,0,0,0-4.24-4c1.22-1.31,1.29-1.39,4-2.18" transform="translate(-7.94 -9.57)"/><path class="cls-12" d="M211.76,10c-2.48,1.22-2.63,1.29-5.51,3.77-3.19,1.37-3.38,1.46-4.59,3.09.64-4.65.67-4.83,0-6.32a55.72,55.72,0,0,1,10.1-.54" transform="translate(-7.94 -9.57)"/><path class="cls-13" d="M184.09,10.25c6.3-.44,6.3-.44,9.43-.55l3.56-.1a7.9,7.9,0,0,1,2.13.51c-3.63.71-3.77.74-5.28,1.72-6.08-1.85-6.08-1.85-10.12-1.55l.28,0" transform="translate(-7.94 -9.57)"/><path class="cls-14" d="M202.5,9.57c2.6,0,6.07.15,8.67.25a77.09,77.09,0,0,0-10,.08l-1.18-.33h2.56" transform="translate(-7.94 -9.57)"/><path class="cls-15" d="M195.88,13.65a48.88,48.88,0,0,1,4.16,3.4l-1,.1H199l-.55-.28c-2.18-1.76-2.31-1.87-2.55-3.23" transform="translate(-7.94 -9.57)"/><path class="cls-16" d="M180.87,10.54c7.82,0,8.12,0,12.59,1.82-.21,1.25-.24,1.45,1.24,2.83-10-3-10.44-3.16-18.1-3.41a8.17,8.17,0,0,1,4.27-1.24" transform="translate(-7.94 -9.57)"/><path class="cls-17" d="M180.51,14.54c5.18.69,12.08,1.72,17.17,2.89a4.18,4.18,0,0,0-.66.24l-8.08-1.1a78.88,78.88,0,0,1-8.43-2" transform="translate(-7.94 -9.57)"/><path class="cls-18" d="M176.45,12.16c11.61,1.09,12.06,1.13,19.28,3.74.78.42,1.82,1,2.62,1.37l-.49.11c-5.55-1.26-13-2.65-18.68-3.31-2.27-1-2.41-1.1-2.73-1.91" transform="translate(-7.94 -9.57)"/><path class="cls-19" d="M191.37,17l5.53.72-.22.12c-1.59-.25-3.72-.57-5.31-.84" transform="translate(-7.94 -9.57)"/><path class="cls-20" d="M154.12,18.06c17.29-2,18.33-2.11,30.36-1.62,5,.75,6,.9,11.76,1.54-17.1-.58-19.72-.67-32.68.81-4.83-.3-5.7-.35-9.44-.73" transform="translate(-7.94 -9.57)"/><path class="cls-21" d="M117.84,28.67c16.56-6.29,17.55-6.67,29.45-9.34,3.46.28,4.39.36,9,.57-17.93,4-19,4.19-31.13,8.72-4.32.05-4.4.05-7.31.05" transform="translate(-7.94 -9.57)"/><path class="cls-22" d="M182,19.16l14.33-.73a.53.53,0,0,0,.15.3l-.67.05c-6.23.25-7.52.3-13.81.38" transform="translate(-7.94 -9.57)"/><path class="cls-23" d="M166.15,18.91c17.86-1.4,19.32-1.51,30.27-.84a.52.52,0,0,0-.14.29c-5.23.2-12.21.34-17.42.81-6-.05-7.21-.06-12.71-.26" transform="translate(-7.94 -9.57)"/><path class="cls-24" d="M142.47,27.93c17.79-5.51,18.86-5.84,31.91-7.88,6.19-.16,7.66-.19,13.92-.53-18.11,3.09-19.2,3.28-31.15,7.29-7,.61-8.11.7-14.68,1.12" transform="translate(-7.94 -9.57)"/><path class="cls-25" d="M127.4,28.57C145,22.68,146,22.33,158.79,20c5.33.12,6.59.15,12.51.12-18.47,3.52-19.57,3.73-31.93,8-6.2.29-6.85.32-12,.46" transform="translate(-7.94 -9.57)"/><path class="cls-26" d="M84.19,47.88c15.06-10.11,16-10.72,27.17-16.28,4-.08,4.56-.1,7-.17C101.86,39.52,100.88,40,90.11,47.21c-3.3.31-4.3.41-5.92.67" transform="translate(-7.94 -9.57)"/><path class="cls-27" d="M107.35,45.7c15.53-9.51,16.45-10.07,28.25-15.13,6.22-.45,8.1-.59,14.92-1.24-15.9,7.41-16.86,7.85-27,14.66-8.31.93-9,1-16.21,1.71" transform="translate(-7.94 -9.57)"/><path class="cls-28" d="M92.19,47c15.67-9.8,16.61-10.38,28.38-15.68,4.3-.17,6.26-.25,11.91-.58C115.84,38.52,114.84,39,104.09,46c-5.66.5-5.66.5-11.9,1" transform="translate(-7.94 -9.57)"/><path class="cls-29" d="M173.66,11.38,175,11.2a19.57,19.57,0,0,0-2.86.7c-3.22.41-7.53.88-10.71,1.53,3.65-.66,8.52-1.53,12.2-2" transform="translate(-7.94 -9.57)"/><path class="cls-30" d="M148.19,17c15.14-2.59,16.05-2.75,26.42-2.73a64.8,64.8,0,0,0,7.61,1.79c-15.47,0-17.85,0-29.72,1.81a20.78,20.78,0,0,1-4.31-.87" transform="translate(-7.94 -9.57)"/><path class="cls-31" d="M148.86,16.38c2.22-.55,5.18-1.32,7.41-1.83,4.62-.89,10.82-1.92,15.5-2.34v.58a10.46,10.46,0,0,0,1.72,1.06c-14.39.65-15.25.69-25.59,3a1.77,1.77,0,0,1,1-.43" transform="translate(-7.94 -9.57)"/><path class="cls-32" d="M115.49,28.67c3-1.33,6.94-3.19,10-4.44l1.9-.76c4.42-1.56,10.3-3.69,14.8-5a15.76,15.76,0,0,0,3.65.69c-16.62,4.42-17.62,4.69-29,9.49-.41,0-.94,0-1.35,0" transform="translate(-7.94 -9.57)"/><path class="cls-33" d="M142.64,18.15c-.18.05-.5,0-.59.2l-9.36,3.09c3-1,6.95-2.36,9.95-3.29" transform="translate(-7.94 -9.57)"/><path class="cls-34" d="M83.42,48.13c3.36-2.35,7.77-5.58,11.21-7.81,4.4-2.65,10.28-6.16,14.8-8.61.3,0,.72-.07,1-.08C94.84,40.09,93.91,40.6,83.63,48l-.21.11" transform="translate(-7.94 -9.57)"/><polyline class="cls-35" points="61.21 50.42 69.84 42.98 69.96 42.9 60.11 51.43 61.21 50.42"/><path class="cls-36" d="M54.85,74.64C67.64,61.22,68.41,60.41,78.39,52.29a52.71,52.71,0,0,1,5.74-.76C69.79,63.25,68.93,64,60,73.47c-3.19.53-3.95.66-5.16,1.17" transform="translate(-7.94 -9.57)"/><path class="cls-37" d="M31.44,107.79C41.24,91.61,41.83,90.65,50,80.32c1.44-.58,1.62-.66,5.07-1.25-11.48,14.81-12.16,15.7-18.8,27.1-3.23.74-3.9.9-4.86,1.62" transform="translate(-7.94 -9.57)"/><path class="cls-38" d="M78,71.28c12.66-12.93,13.42-13.7,23.49-21.4,6.53-.67,9-.92,16.55-1.81-13.09,11.14-13.87,11.81-21.8,21-9.76,1.22-9.76,1.22-18.24,2.21" transform="translate(-7.94 -9.57)"/><path class="cls-39" d="M62,73.18C75.12,60,75.9,59.23,86.18,51.33l12-1.12C84,61.65,83.14,62.33,74.42,71.69c-6.53.76-8.81,1-12.38,1.49" transform="translate(-7.94 -9.57)"/><path class="cls-40" d="M55.49,103.38c9.28-15.74,9.83-16.68,17.75-26.62,11-1.31,13.37-1.61,18.65-2.29-9.86,14.26-10.45,15.12-16,26.21-8.23,1.14-8.23,1.14-20.45,2.7" transform="translate(-7.94 -9.57)"/><path class="cls-41" d="M38.38,105.79c9.86-16,10.45-16.91,18.76-27,5.34-.71,5.34-.71,12.51-1.57-11.06,14.56-11.72,15.43-18,26.69-6.47.87-8.65,1.16-13.23,1.91" transform="translate(-7.94 -9.57)"/><path class="cls-42" d="M15.45,146.11c6.15-18.35,6.52-19.45,12.43-31.58,1.2-.8,1.38-.92,4.84-1.71-8,17.31-8.47,18.35-12.44,31.21-3.76,1.07-4,1.14-4.83,2.08" transform="translate(-7.94 -9.57)"/><path class="cls-43" d="M40.93,140.65c5.49-17.91,5.82-19,11.25-30.72,13.63-1.76,13.63-1.76,20.83-2.8-6.34,16.7-6.72,17.7-9.69,30.23-12,1.88-12,1.88-22.39,3.29" transform="translate(-7.94 -9.57)"/><path class="cls-44" d="M22.46,143.55c6.11-18.12,6.47-19.2,12.36-31.13,5.46-.89,5.9-1,13.41-2-7.47,17-7.92,18.07-11.55,30.8-7.3,1.07-9.27,1.36-14.22,2.3" transform="translate(-7.94 -9.57)"/><path class="cls-45" d="M8.22,188.26c1.92-19.9,2-21.09,5.19-34.6,1.09-1,1.29-1.19,4.84-2.17-4,19.17-4.2,20.31-5.2,34.19C9.13,187,9,187.08,8.22,188.26" transform="translate(-7.94 -9.57)"/><path class="cls-46" d="M10.77,231.71c-2.68-19.9-2.84-21.09-2.83-35.34,1.14-1.43,1.19-1.49,4.8-2.69.45,20.36.48,21.58,2.66,35.63-3.85,1.3-4,1.35-4.63,2.4" transform="translate(-7.94 -9.57)"/><path class="cls-47" d="M34.92,181.66C36.39,162.19,36.48,161,39.16,148c9-1.25,12.05-1.68,22.69-3.41-2.7,18.46-2.86,19.57-3.26,33.06-12,2.12-13.5,2.4-23.67,4" transform="translate(-7.94 -9.57)"/><path class="cls-48" d="M15.31,185.09c1.92-19.64,2-20.81,5.14-34.1,5.64-1.06,6.37-1.19,14.39-2.38-3.5,18.89-3.71,20-4.47,33.75-7.93,1.28-9.82,1.58-15.06,2.73" transform="translate(-7.94 -9.57)"/><path class="cls-49" d="M37.6,224.82c-2.55-20.19-2.7-21.4-2.84-35.29,9.4-1.56,12.57-2.09,23.82-4.15.94,19.53,1,20.7,3.09,34.69-12.47,2.52-13.22,2.67-24.07,4.75" transform="translate(-7.94 -9.57)"/><path class="cls-50" d="M17.66,228.71C15.1,208.5,15,207.29,15,193.08c5.94-1.29,6.71-1.46,15.17-2.83.66,20,.7,21.2,2.83,35.44-8.51,1.57-11.13,2.07-15.35,3" transform="translate(-7.94 -9.57)"/><path class="cls-51" d="M22.68,272.15c-6.86-18.22-7.27-19.31-10.38-32.68,1-1.16,1-1.21,4.59-2.28,4.83,19.2,5.12,20.35,10.16,33.21-3.25.83-3.84,1-4.37,1.75" transform="translate(-7.94 -9.57)"/><path class="cls-52" d="M48.6,266.8c-6.17-18.6-6.67-20.12-9.56-33.92,10.22-2,11.79-2.31,24-4.85,4.36,19.8,4.62,21,9,34.33C60.16,264.71,58.64,265,48.6,266.8" transform="translate(-7.94 -9.57)"/><path class="cls-53" d="M29.26,270c-6.56-18.25-7.09-19.74-10.12-33.34,4.65-1,4.65-1,15.33-2.9,4.75,19.91,4.93,20.69,9.71,33.82-5,.82-10,1.58-14.92,2.42" transform="translate(-7.94 -9.57)"/><path class="cls-54" d="M187.38,29.72c6.88-7.18,7-7.32,11.7-10.08.32.05.66.08,1,.11a57.59,57.59,0,0,0-3.44,5.33,56.25,56.25,0,0,1-9.26,4.64" transform="translate(-7.94 -9.57)"/><path class="cls-55" d="M198.1,24.05l2.22-4.29q.52,0,1.08,0v.06c-.87,2.07-.92,2.2-3.3,4.2" transform="translate(-7.94 -9.57)"/><path class="cls-56" d="M160.62,26.47c17.08-5.12,18.1-5.43,30.81-7.15,1.56-.12,3.65-.27,5.22-.41l.14.09.17.09c-6.44,1.39-15,3.49-21.26,5.47-7.07,1-7.81,1.12-15.08,1.91" transform="translate(-7.94 -9.57)"/><path class="cls-57" d="M194.24,20.74l3.74-1.3.35.08c-1.22.37-2.85.88-4.09,1.22" transform="translate(-7.94 -9.57)"/><path class="cls-58" d="M179,24c5.4-1.62,12.63-3.71,18.14-4.88a4.9,4.9,0,0,0,.71.24l-6,2c-5.44,1.26-6.57,1.52-12.81,2.64" transform="translate(-7.94 -9.57)"/><path class="cls-59" d="M127.57,43.5C142,34.31,142.9,33.76,154.08,29c6.83-.79,8.9-1,15.63-2.06-14.23,7-15.08,7.37-24,13.88-8.23,1.38-9.94,1.66-18.17,2.72" transform="translate(-7.94 -9.57)"/><path class="cls-60" d="M170.63,35.26c10-8,10.63-8.53,18.78-12.5a81.32,81.32,0,0,0,9.44-3.15h0c-8.72,5.44-9.24,5.77-14.17,11.16-5.91,2.09-7.14,2.52-14.06,4.49" transform="translate(-7.94 -9.57)"/><path class="cls-61" d="M149.83,40c12.61-8.72,13.37-9.25,23.28-13.7,6.52-1.23,7.88-1.48,13.61-2.86-11.83,6.3-12.54,6.68-19.7,12.74-7.54,1.83-9.11,2.21-17.19,3.82" transform="translate(-7.94 -9.57)"/><path class="cls-62" d="M211.37,26.56c-2.49-2.08-5.83-4.86-8.4-6.85l.51-.06.51-.08,4.74,2.12c2.24,2.29,2.38,2.43,2.64,4.87" transform="translate(-7.94 -9.57)"/><path class="cls-63" d="M230.62,44.73c-9.15-9-10.1-9.95-16-15.3.19-3.12.19-3.25-1.4-5.54,11.64,6.36,12.33,6.74,21.06,12.45-.91,4.23-1,4.48-3.66,8.39" transform="translate(-7.94 -9.57)"/><path class="cls-64" d="M207.39,20.79l-3.19-1.26.34-.07c.85.39,2,.85,2.85,1.33" transform="translate(-7.94 -9.57)"/><path class="cls-65" d="M229.56,26.37c-15.81-5.16-16.11-5.26-24.38-7.1a2.78,2.78,0,0,0,.57-.25c4.52.76,10.57,1.68,15.06,2.6,5.15,2.15,5.46,2.28,8.75,4.75" transform="translate(-7.94 -9.57)"/><path class="cls-66" d="M234.27,34.58c-12.89-7.4-13.66-7.84-22.13-11.75A19.77,19.77,0,0,0,205,19.34h0c15,4.19,15.61,4.35,26,8.38,2.54,3.34,2.69,3.54,3.29,6.87" transform="translate(-7.94 -9.57)"/><path class="cls-67" d="M253.09,68.68c-10.43-11.5-11.29-12.44-18.51-19.92,3.49-4.85,3.63-5,4.71-9C251.57,48.63,252.86,49.56,262,57c-3.56,6-3.77,6.35-8.9,11.67" transform="translate(-7.94 -9.57)"/><path class="cls-68" d="M263.79,41.62c-15.87-8-16.82-8.44-27.91-12.89-3.58-3.21-3.72-3.34-8-5.54,17.49,4.74,18.54,5,30.69,9.53,3.5,4.38,3.71,4.64,5.27,8.9" transform="translate(-7.94 -9.57)"/><path class="cls-69" d="M263.1,54.46c-13.5-10-14.31-10.63-23.59-16.63-.39-4.2-.41-4.37-2.39-7.59,15.42,7.11,16.35,7.54,27.18,13.61.32,5.35.34,5.67-1.2,10.61" transform="translate(-7.94 -9.57)"/><path class="cls-70" d="M218.34,20.82,205.86,19a1.07,1.07,0,0,0,.31-.28c6.72.77,7.12.81,12.17,2.14" transform="translate(-7.94 -9.57)"/><path class="cls-71" d="M256.7,30.94C239,25.29,238,25,225.5,22.21a59.28,59.28,0,0,0-11.93-3c18.86,2.18,20,2.31,33,5.1,5,2.69,6.18,3.33,10.18,6.65" transform="translate(-7.94 -9.57)"/><path class="cls-72" d="M227.42,18.46c-6.35-.16-14.83-.34-21.18-.22a.87.87,0,0,0-.26-.3l7.43-.61a84,84,0,0,1,14,1.13" transform="translate(-7.94 -9.57)"/><path class="cls-73" d="M243.79,23.07c-18.72-3.15-19.84-3.33-33.21-4.24l-4.32-.31a.37.37,0,0,0,0-.21c7.3.07,17,.3,24.33.74a78.47,78.47,0,0,1,13.2,4" transform="translate(-7.94 -9.57)"/><path class="cls-74" d="M293.22,47c-16.51-8.25-17.5-8.75-29.57-13.49A44.53,44.53,0,0,0,253.78,26c17.8,5.15,18.87,5.46,30.7,10.18,5.26,5.32,5.57,5.64,8.74,10.76" transform="translate(-7.94 -9.57)"/><path class="cls-75" d="M326.23,68.1C311.63,57.63,310.75,57,299.64,50.52c-3.73-6.28-3.87-6.52-8.55-11.47,16,7.77,17,8.24,27.18,14.64,5,7.25,5.31,7.69,8,14.41" transform="translate(-7.94 -9.57)"/><path class="cls-76" d="M265.36,24c-17-3.56-18-3.78-30.6-5a94.43,94.43,0,0,0-14.27-2c17.07,0,18.1,0,29.17,1.34a117.82,117.82,0,0,1,15.7,5.7" transform="translate(-7.94 -9.57)"/><path class="cls-77" d="M281.93,34c-17.15-6-18.18-6.35-30.83-9.39A75.38,75.38,0,0,0,238,19.78c17.91,2.63,19,2.79,30.77,5.85A80.19,80.19,0,0,1,281.93,34" transform="translate(-7.94 -9.57)"/><path class="cls-78" d="M284.77,28.15c9.09,4.82,9.26,4.91,13.45,7.66-14.36-6.35-15.21-6.73-26.35-10.06a123,123,0,0,0-16.09-6.5l4.89.94a141.2,141.2,0,0,1,24.1,8" transform="translate(-7.94 -9.57)"/><path class="cls-79" d="M315.74,50.64c-14.88-8.49-15.77-9-27.19-13.94a80.12,80.12,0,0,0-13.28-9.16C291,33.05,292,33.38,301.9,38.33c7.88,6.1,8.35,6.47,13.84,12.31" transform="translate(-7.94 -9.57)"/><path class="cls-80" d="M354.14,93.61c-12-12.37-12.7-13.11-22.31-21.1-3.22-8.12-3.35-8.44-7.89-15,13.49,10.09,14.3,10.69,22.46,18.57,5,8.9,5.34,9.44,7.74,17.56" transform="translate(-7.94 -9.57)"/><path class="cls-81" d="M298.18,34.85c6.53,4,15.06,9.64,21.31,14.07-4.66-3.24-11-7.43-15.85-10.3-3.69-2.35-8.69-5.37-12.5-7.51q3.57,1.77,7,3.74" transform="translate(-7.94 -9.57)"/><path class="cls-82" d="M331,58.44c8,7.7,8.44,8.16,12.76,13.81-12-10.69-12.71-11.33-22.39-18-6.61-7.1-6.87-7.38-14-13,12.79,8,13.29,8.32,19.57,13.6L331,58.44" transform="translate(-7.94 -9.57)"/><path class="cls-83" d="M277.12,97.26c-11.05-13.64-11.72-14.45-19.65-23.61,6.21-6.48,6.45-6.73,9.76-12.24,12.41,11,14,12.37,23,21.22-5.67,7.58-6,8-13.09,14.63" transform="translate(-7.94 -9.57)"/><path class="cls-84" d="M300.9,129.41c-10.65-15.1-11.29-16-19.31-26.44,8.37-8,8.7-8.26,13.76-15.14,12,12.78,13.52,14.42,21.8,24.37-7.26,9-7.69,9.49-16.25,17.21" transform="translate(-7.94 -9.57)"/><path class="cls-85" d="M297.18,62.32C282,52,281.1,51.38,270.08,45.07c-1.67-5.29-1.74-5.5-4.72-9.63,16.88,7.51,17.89,8,29.2,14.21,2.26,6.38,2.4,6.77,2.62,12.67" transform="translate(-7.94 -9.57)"/><path class="cls-86" d="M292.21,79.36c-12.77-11.65-14.11-12.87-23.69-20.64,2-6.07,2.06-6.3,1.93-11.26,15.29,9.68,16.2,10.26,26.53,17.91-1.44,7.15-1.53,7.57-4.77,14" transform="translate(-7.94 -9.57)"/><path class="cls-87" d="M328,87.57c-13.68-12.26-14.5-13-24.87-20.9-.23-7.18-.24-7.46-2.22-13.32,15.47,9.9,16.4,10.49,26.35,18.23,1.41,8.14,1.49,8.63.74,16" transform="translate(-7.94 -9.57)"/><path class="cls-88" d="M319.82,108.29c-12.06-13.54-13.05-14.65-22.33-23.86,3.86-7.75,4-8.05,5.33-14.57C316.28,81,318,82.41,327.27,91.34c-2.74,8.72-2.91,9.25-7.45,17" transform="translate(-7.94 -9.57)"/><path class="cls-89" d="M322.52,164.13c-9.19-15.82-9.94-17.12-17.4-28.46,10-9.24,10.37-9.6,16.72-17.64C332.57,132.2,334,134,341,144.81c-8.35,10.08-8.85,10.68-18.43,19.32" transform="translate(-7.94 -9.57)"/><path class="cls-90" d="M354.52,116.58c-11.65-14.13-12.11-14.68-21.23-23.9.81-8.85.84-9.19-.48-16.56C346.11,88.05,346.9,88.76,355,97.76c.88,9.64.93,10.21-.48,18.82" transform="translate(-7.94 -9.57)"/><path class="cls-91" d="M344.09,140.39c-10.27-14.83-11.11-16-19.47-26.37,5.28-9.23,5.48-9.59,7.85-17.46C344.25,109.34,345.76,111,353.42,121c-3.65,10-3.86,10.64-9.33,19.44" transform="translate(-7.94 -9.57)"/><path class="cls-92" d="M100.82,68.44c11.4-12.65,12.08-13.41,21.3-20.88,8.48-1.15,10.25-1.39,18.76-2.87-11.32,10.69-12,11.33-18.68,20.2-10,1.82-11.84,2.15-21.38,3.55" transform="translate(-7.94 -9.57)"/><path class="cls-93" d="M81.15,99.89c8-15.45,8.49-16.38,15.48-26.08,9.61-1.47,11.89-1.82,22-3.7-8.12,13.79-8.61,14.61-13,25.39C94.08,97.72,92,98.12,81.15,99.89" transform="translate(-7.94 -9.57)"/><path class="cls-94" d="M153.45,57.72c7-11.52,7.41-12.21,13.5-18.87,7.29-2.1,8.81-2.54,15.08-4.76-5.83,9.21-6.18,9.76-9.1,17.64-8.45,2.8-10.21,3.39-19.48,6" transform="translate(-7.94 -9.57)"/><path class="cls-95" d="M127.15,63.92c9.52-12.18,10.09-12.9,18-20,8.41-1.72,10.16-2.07,18-4-8.87,10.06-9.41,10.66-14.41,19.1-9.84,2.43-11.61,2.87-21.57,5" transform="translate(-7.94 -9.57)"/><path class="cls-96" d="M142.87,86.74c3.92-14.36,4.16-15.22,8.12-24.1,9.65-2.75,11.66-3.32,20.46-6.27-2.92,12.35-3.1,13.09-4,22.93-11.08,3.58-13.07,4.22-24.57,7.44" transform="translate(-7.94 -9.57)"/><path class="cls-97" d="M111.39,94.32c6.26-15,6.63-15.88,12.32-25.23,10.29-2.2,12.44-2.66,22.35-5.15-5.8,13.17-6.14,14-9,24.34-11.83,3-14,3.49-25.7,6" transform="translate(-7.94 -9.57)"/><path class="cls-98" d="M69,136.4c4.45-17.58,4.72-18.63,9.29-30.1,10.89-1.83,13.48-2.26,25-4.53C98.52,118,98.23,119,96.2,131.2c-13.11,2.66-15.13,3.07-27.16,5.2" transform="translate(-7.94 -9.57)"/><path class="cls-99" d="M138.75,120.91c1-16.55,1-17.55,2.88-28.2C153.49,89.35,156,88.65,167.08,85c-.16,14.53-.18,15.72.74,27.11-13.21,4.23-15.6,5-29.07,8.78" transform="translate(-7.94 -9.57)"/><path class="cls-100" d="M102.7,129.8c3-17.13,3.15-18.16,6.55-29.26,11.78-2.61,14.58-3.23,26.42-6.24-2.74,15.62-2.91,16.55-3.63,28.42-13.56,3.46-16,4.08-29.34,7.08" transform="translate(-7.94 -9.57)"/><path class="cls-101" d="M177,50.28C180.85,39.62,181.09,39,185,33a77.38,77.38,0,0,0,10.44-5c-2.3,8.12-2.43,8.6-2.92,15.72-6.5,3-7.85,3.67-15.54,6.61" transform="translate(-7.94 -9.57)"/><path class="cls-102" d="M172.72,77.48c1.07-13.54,1.13-14.35,3-22.63,8.09-3.11,9.78-3.75,16.66-7,.41,11.52.43,12,1.75,21.11-9.43,4-11.12,4.75-21.41,8.48" transform="translate(-7.94 -9.57)"/><path class="cls-103" d="M207.27,34c-3.55-8.08-3.76-8.57-5.19-12.79L202,19.77l.7,0c2.58,2.4,6,5.64,8.49,8.11C210,30.9,210,31.08,207.27,34" transform="translate(-7.94 -9.57)"/><path class="cls-104" d="M195.45,42.14c.34-9.52.36-10.09,1.71-15.31,3.2-2.5,3.39-2.65,4.6-4.67a89.05,89.05,0,0,0,3.88,13.3,59.48,59.48,0,0,1-10.19,6.68" transform="translate(-7.94 -9.57)"/><path class="cls-105" d="M218.24,55.85c-5.48-10.48-6.18-11.82-9.31-18.3,3.56-3.56,3.77-3.78,5.24-6.7,7.64,8,8.44,8.87,14.75,15.9a62.23,62.23,0,0,1-10.68,9.1" transform="translate(-7.94 -9.57)"/><path class="cls-106" d="M198.49,67c-2.22-12.49-2.35-13.23-2.89-20.73A78.86,78.86,0,0,0,207,39.14c4,9.73,4.29,10.52,8.09,18.79A162.12,162.12,0,0,1,198.49,67" transform="translate(-7.94 -9.57)"/><path class="cls-107" d="M174.22,110c-1.48-15.5-1.6-16.77-1.64-26.83,10.67-3.9,12.88-4.71,22.44-8.81,2.75,13.52,3,14.62,5.86,25.4-11.9,4.88-14,5.75-26.66,10.24" transform="translate(-7.94 -9.57)"/><path class="cls-108" d="M233.39,83.3c-7-12.44-8.24-14.68-12.63-22.76,7.1-5.09,7.37-5.29,11.86-9.63,9,10.29,10.57,12.15,17.5,20.48A131.06,131.06,0,0,1,233.39,83.3" transform="translate(-7.94 -9.57)"/><path class="cls-109" d="M206.5,97.26c-4.15-14-4.69-15.76-6.87-25a181,181,0,0,0,17.74-9.5c6.13,12.61,6.37,13.11,11.54,23.22-9.77,5.34-11.53,6.3-22.41,11.31" transform="translate(-7.94 -9.57)"/><path class="cls-110" d="M180.69,146.33c-3.48-16.43-3.92-18.55-5.62-29.9,13-4.65,15.64-5.62,27.54-10.54,4.74,15.6,5,16.53,9.15,28.61-14,5.65-16.49,6.66-31.07,11.83" transform="translate(-7.94 -9.57)"/><path class="cls-111" d="M191,185.28c-4.93-17.14-5.68-19.78-8.68-31.9,14.48-5.2,17.92-6.44,31.78-12.1,6.29,17.4,6.29,17.4,11.36,30.78-15.57,6.31-18.38,7.45-34.46,13.22" transform="translate(-7.94 -9.57)"/><path class="cls-112" d="M251.47,115.08,236.56,88.89c8.7-5.53,10.77-6.84,17.73-12.4,10,12.45,11.5,14.36,18.86,24.11-10.45,7.77-10.45,7.77-21.68,14.48" transform="translate(-7.94 -9.57)"/><path class="cls-113" d="M218.46,131.63c-5.65-15.39-6.52-17.76-10-28.28,11.22-5.22,13.55-6.3,23.39-11.71,7.17,13.73,7.17,13.73,14,26.62-12.09,6.33-14.26,7.47-27.36,13.37" transform="translate(-7.94 -9.57)"/><path class="cls-114" d="M270.94,150c-9.07-16.5-9.07-16.5-15.93-28.65,10.79-6.51,13.69-8.26,22.46-14.92,10.07,14,11.62,16.16,18.72,26.87-11.88,8.76-12.59,9.28-25.25,16.7" transform="translate(-7.94 -9.57)"/><path class="cls-115" d="M233,168.83c-6.2-15.49-7.86-19.66-12-30.49,13.37-6.1,16.15-7.36,28.17-13.73,7.55,14.33,9.83,18.66,15.17,29-13.93,7.22-16.44,8.52-31.31,15.2" transform="translate(-7.94 -9.57)"/><path class="cls-116" d="M203.83,225.5c-5.65-17.15-6.83-20.72-10.57-32.84,15.86-5.77,19.63-7.14,35-13.45,9.91,25.8,10.95,28.52,12.26,32-16.62,6.85-19.62,8.08-36.65,14.33" transform="translate(-7.94 -9.57)"/><path class="cls-117" d="M289.93,186.91c-8.52-17.3-8.68-17.63-15.38-30.22,14.72-8.83,15.3-9.17,25.75-17.06,9.34,15.09,10.77,17.42,17,28.82-13,9.73-13.82,10.31-27.39,18.46" transform="translate(-7.94 -9.57)"/><path class="cls-118" d="M248.59,207.64c-6.28-15.77-6.28-15.77-12.71-31.72,14.7-6.69,18.19-8.28,31.93-15.5,8,16,9.47,18.92,14.92,30.52-15.27,7.95-18,9.38-34.14,16.7" transform="translate(-7.94 -9.57)"/><path class="cls-119" d="M64.68,176.52c.86-19,.91-20.17,3-32.93,11.72-2.13,14.87-2.71,27.6-5.35-1.52,18-1.61,19-1.38,32.28-14.07,3-16.24,3.5-29.19,6" transform="translate(-7.94 -9.57)"/><path class="cls-120" d="M67.91,218.77c-2.61-19.82-2.77-21-3.19-34.55,12.22-2.42,15.91-3.16,29.47-6.14,1.58,19,1.68,20.19,4,34-15.16,3.49-16.74,3.86-30.26,6.73" transform="translate(-7.94 -9.57)"/><path class="cls-121" d="M140.59,158.84c-1.6-17-1.81-19.22-1.93-31.15,13.46-3.85,16.66-4.76,29.83-9,2.21,16.3,2.39,17.63,4.88,30.16-15,4.82-17.66,5.69-32.78,10" transform="translate(-7.94 -9.57)"/><path class="cls-122" d="M100.93,168.93c-.18-17.87-.2-19.74.93-32.13,13.3-3,16.46-3.77,29.93-7.26.15,17.74.15,18.43,1.34,31.35-15.26,4-17.61,4.62-32.2,8" transform="translate(-7.94 -9.57)"/><path class="cls-123" d="M147.58,199.12c-3.72-17.92-4.2-20.23-6.06-33,15-4.35,18.56-5.39,33.36-10.22,4.18,17.73,4.43,18.79,8.14,32.11-16.6,5.45-19.16,6.29-35.44,11.08" transform="translate(-7.94 -9.57)"/><path class="cls-124" d="M105.55,210.27c-2.87-18.29-3.24-20.64-4.23-33.82,14.47-3.46,17.9-4.28,32.63-8.2,2.62,18.11,2.83,19.59,5.66,33.14-16.15,4.39-18.64,5.07-34.06,8.88" transform="translate(-7.94 -9.57)"/><path class="cls-125" d="M78.19,261.09c-5.71-19.08-6-20.22-8.88-34.38,12.65-2.77,16.47-3.6,30.32-6.87,4.15,18.64,4.68,21,8.66,34.37-14.92,3.57-16.84,4-30.1,6.88" transform="translate(-7.94 -9.57)"/><path class="cls-126" d="M158.56,240.4c-5.21-17.89-6-20.64-9.21-33.68,16.05-4.8,19.86-5.94,35.8-11.25,5.62,18.68,5.73,19,10.25,33-17.28,5.84-19.94,6.74-36.84,11.92" transform="translate(-7.94 -9.57)"/><path class="cls-127" d="M115.71,252.35c-5.15-18.39-5.81-20.75-8.67-34.3,14.82-3.74,18.8-4.74,34.27-9,4.69,18.89,5,20,9.05,33.8-15.6,4.46-19.79,5.66-34.65,9.52" transform="translate(-7.94 -9.57)"/><path class="cls-128" d="M42.69,308.07c-10.41-15.91-11-16.86-16.88-28.9.88-.84.91-.87,4.31-1.63,8.54,17.18,9.05,18.21,16.4,29.37-3,.55-3.49.65-3.83,1.16" transform="translate(-7.94 -9.57)"/><path class="cls-129" d="M69.28,338.14c-3-3-7.16-6.83-10.08-9.92-3.66-4.19-8.59-9.74-12-14.1.53-.48.63-.57,3.68-1.05C62.32,327.65,63,328.52,72.06,337.6a23,23,0,0,0-2.76.44l0,.1" transform="translate(-7.94 -9.57)"/><path class="cls-130" d="M66.31,304c-8.94-16.25-9.67-17.58-14.88-30,9.1-1.61,12.16-2.15,23.23-4.33,7.29,18.06,7.57,18.77,13.58,30.48-11.4,2.07-12.6,2.29-21.93,3.81" transform="translate(-7.94 -9.57)"/><path class="cls-131" d="M48.57,306.63C38.75,290.68,38,289.37,32.3,277.13c11-1.7,11-1.7,14.76-2.32,8.1,17.78,8.42,18.47,15.17,29.87-7.72,1.15-8.18,1.22-13.66,1.95" transform="translate(-7.94 -9.57)"/><path class="cls-132" d="M88.75,335.45C78,322,77.07,321,70.17,310.32c8.16-1.32,11.22-1.82,21.54-3.69,9.19,15.46,9.55,16.06,16.5,25.73-10.4,1.74-11.25,1.88-19.46,3.09" transform="translate(-7.94 -9.57)"/><path class="cls-133" d="M73.71,337.42C61.3,324.08,60.56,323.28,52.84,312.8c4.41-.58,6.61-.87,13.33-1.86,10.56,15.12,11,15.71,19,25-6.71.9-7,.94-11.5,1.47" transform="translate(-7.94 -9.57)"/><path class="cls-134" d="M100.5,361.29c-14.15-9.05-15-9.6-23.84-16.75L74.77,343c.39-.21.39-.21,2.52-.43,13.53,11.44,14.34,12.13,24.42,18.72a4.1,4.1,0,0,1-1.21,0" transform="translate(-7.94 -9.57)"/><path class="cls-135" d="M114,360.05c-12-10.35-12.73-11-20.72-19.51,7.29-1.06,9.75-1.42,18.89-2.94C122.35,350,122.74,350.52,130,357.85c-8.52,1.25-9.41,1.38-16,2.2" transform="translate(-7.94 -9.57)"/><path class="cls-136" d="M102.75,361.19c-13.92-9.9-14.75-10.49-23.9-18.82,3.45-.39,5.34-.61,11-1.35,11.89,11.75,12.6,12.45,21.35,19.35-7.43.79-8.38.84-8.45.82" transform="translate(-7.94 -9.57)"/><path class="cls-137" d="M128.27,374.88c-12.58-5.35-13.61-5.79-21.66-10.11.27,0,.62,0,.89,0,6.27,3.32,14.79,7.48,21.3,10.31l-.53-.21" transform="translate(-7.94 -9.57)"/><path class="cls-138" d="M140.18,376.94c-12.15-6.61-12.88-7-21.36-13.16,5.6-.67,7.7-.93,15.25-2,10.12,8.84,10.73,9.37,17.68,14.12C141,377,140.23,377,140.18,376.94" transform="translate(-7.94 -9.57)"/><path class="cls-139" d="M133.86,377c-14.57-6-15.44-6.39-25.45-12.23,2.44-.17,3.45-.24,7.78-.67,12.58,8.25,13.33,8.74,22.16,13a25,25,0,0,1-4.49-.07" transform="translate(-7.94 -9.57)"/><path class="cls-140" d="M166.18,385.46l-2.56-.46c-11.67-2.91-11.89-3-18.63-5.84,3.77-.2,5-.27,10.65-.81,9.48,5.13,10.05,5.44,16.2,7.41a33.44,33.44,0,0,1-5.66-.3" transform="translate(-7.94 -9.57)"/><path class="cls-141" d="M146,380.88,139.89,379a16.58,16.58,0,0,0,3.47.18c4.84,1.69,11.35,3.78,16.32,5-7.75-1.75-9.59-2.17-13.65-3.35" transform="translate(-7.94 -9.57)"/><path class="cls-142" d="M172,386.38c1,.09,2.27.21,3.25.25l4,.66c-2.18-.26-5.09-.61-7.27-.91" transform="translate(-7.94 -9.57)"/><path class="cls-143" d="M94.05,299.12c-8-16.68-8.6-18-13.29-30.61,12.33-2.63,16-3.43,29.95-6.74,6.45,18,6.83,19.12,12.14,31.24-14.31,3.19-16.15,3.59-28.8,6.11" transform="translate(-7.94 -9.57)"/><path class="cls-144" d="M113.46,331.43c-8.89-13.33-10-15-16-25.88,11.65-2.31,15.17-3,28.44-5.95,7.68,15.54,8.14,16.47,14,26.62-13.2,2.74-14.89,3.09-26.39,5.21" transform="translate(-7.94 -9.57)"/><path class="cls-145" d="M172,280.27c-6-16.63-7-19.19-11.1-32.23,16.13-5,20.47-6.38,37-12,5.34,16.07,7.14,21.48,11,32.55-17.41,5.84-20.09,6.73-36.84,11.72" transform="translate(-7.94 -9.57)"/><path class="cls-146" d="M130,291.34c-6.64-16.15-7.65-18.63-11.93-31.39,14.85-3.86,18.84-4.89,34.6-9.45,6,18.33,6.39,19.43,11.2,32.08-16.22,4.41-18.71,5.08-33.87,8.76" transform="translate(-7.94 -9.57)"/><path class="cls-147" d="M186.05,314.92c-5.87-13.87-7.09-16.75-11.43-27.82,15.9-4.73,20.17-6,36.68-11.54q5.08,14.34,10.18,28.67c-16.81,5.35-19.4,6.18-35.43,10.69" transform="translate(-7.94 -9.57)"/><path class="cls-148" d="M146.51,324.76C139.22,311.12,138.1,309,133,298c14.36-3.48,18.23-4.42,33.59-8.59,6.63,16.11,6.89,16.74,11.78,27.62-15.31,3.93-17.67,4.54-31.84,7.76" transform="translate(-7.94 -9.57)"/><path class="cls-149" d="M134.43,357.15c-9.28-10.29-10.48-11.61-17.15-20.44,10.52-1.93,13.7-2.51,25.82-5,7.86,12.44,8.51,13.45,14.22,21.36-11.54,2.19-13,2.47-22.89,4.11" transform="translate(-7.94 -9.57)"/><path class="cls-150" d="M198.83,343.55c-4.74-10.44-6.52-14.34-10.27-22.86,15.12-4.27,19.18-5.41,35-10.47,4.55,13.26,5.37,15.65,8,23.95-15.6,4.73-18,5.46-32.72,9.38" transform="translate(-7.94 -9.57)"/><path class="cls-151" d="M163.21,351.85c-7.13-10.8-8.23-12.46-13.57-21.58,13.33-3,16.91-3.85,31.33-7.55,6.38,13.57,6.38,13.57,10.84,22.61-13.84,3.34-16,3.85-28.6,6.52" transform="translate(-7.94 -9.57)"/><path class="cls-152" d="M217.37,265.54c-5.92-17.36-5.92-17.36-11-32.56,16.7-6.22,20.67-7.7,36.91-14.5,6.23,16.8,7.53,20.3,11.62,32.19-17.49,7.35-20.17,8.48-37.49,14.87" transform="translate(-7.94 -9.57)"/><path class="cls-153" d="M229.76,301.45c-4.14-12.07-4.14-12.07-10-28.86,16.87-6.25,20.88-7.73,37.48-14.73,5.26,16.07,6.21,19,9.34,29.65-17.26,6.92-19.91,8-36.86,13.94" transform="translate(-7.94 -9.57)"/><path class="cls-154" d="M306.11,224.89c-6.76-17.32-7.16-18.36-12.91-31,15.71-9.68,16.32-10,27.65-18.73,7.91,16.14,8.93,18.21,13.66,30-13.6,10.39-14.41,11-28.4,19.71" transform="translate(-7.94 -9.57)"/><path class="cls-155" d="M263.25,246.94c-6.46-18.12-6.59-18.46-11.82-32,15.87-7.32,19.64-9.06,34.52-16.94,7.2,16.59,8.3,19.14,12.79,31.21-16.42,8.79-18.14,9.71-35.49,17.76" transform="translate(-7.94 -9.57)"/><path class="cls-156" d="M317.32,262.47c-4-15.88-4.63-18.33-8.7-30.51,16.1-10.26,16.73-10.67,28.48-19.88,5.43,16.63,6,18.37,8.63,30.51-13.94,10.77-14.49,11.19-28.41,19.88" transform="translate(-7.94 -9.57)"/><path class="cls-157" d="M275,284c-4.8-16.25-5-16.89-9.28-29.81,15.59-7.32,20.84-9.79,35.56-17.87,5.41,17,6,18.82,8.8,30.43-15.64,8.36-18,9.64-35.08,17.25" transform="translate(-7.94 -9.57)"/><path class="cls-158" d="M239.29,331.69c-3.88-13.17-3.95-13.42-7.51-24.21,16.4-5.79,20.3-7.16,36.59-13.72,3.64,14.23,4.1,16.06,5.78,25.29-16.4,6.31-18.92,7.28-34.86,12.64" transform="translate(-7.94 -9.57)"/><path class="cls-159" d="M322,296c-1.1-14.42-1.19-15.6-3.32-26.94,15.62-9.89,16.56-10.48,28.3-19.69,2.21,16.39,2.34,17.38,2.37,28-13.49,10.11-14,10.51-27.35,18.62" transform="translate(-7.94 -9.57)"/><path class="cls-160" d="M282.12,315.79c-2.46-13.66-2.61-14.48-5.44-25.54,18.86-8.5,20-9,34.8-17,2.81,15.76,3,16.7,3.63,26.68-14.68,7.69-17.33,9.08-33,15.9" transform="translate(-7.94 -9.57)"/><path class="cls-161" d="M244.54,355.76a163.7,163.7,0,0,0-3.92-19.14c15-5,19-6.4,34.36-12.35,1.35,12.41,1.43,13.15,1.16,20.6-15.11,5.57-17.05,6.28-31.6,10.89" transform="translate(-7.94 -9.57)"/><path class="cls-162" d="M244.39,373.2c1-7.14,1-7.42.55-13.7,13-4.12,17.39-5.51,30.86-10.51-1.69,9.57-1.79,10.14-4.28,15.61-12.84,4.41-14.48,5-27.13,8.6" transform="translate(-7.94 -9.57)"/><path class="cls-163" d="M319.51,324.52c2.28-12.43,2.41-13.17,2.6-22.89,14.87-9.18,15.76-9.73,27.06-18.33-1.51,14.37-1.6,15.23-4.19,24.43-12.63,9.15-13.12,9.51-25.47,16.79" transform="translate(-7.94 -9.57)"/><path class="cls-164" d="M283.28,342c.46-11.45.47-11.9-.46-21,17.46-7.7,18.51-8.16,32.48-15.58-.43,13.39-.45,14.2-2.13,22.54-13.37,6.8-15.78,8-29.89,14" transform="translate(-7.94 -9.57)"/><path class="cls-165" d="M309.51,347.79c5.76-9.94,6.11-10.53,8.72-18.55,13.7-8.18,14.52-8.67,25-16.39-5.24,12.2-5.56,12.93-10.73,20.56-11.49,7.88-11.94,8.19-23,14.38" transform="translate(-7.94 -9.57)"/><path class="cls-166" d="M277.66,362.31c3.65-8.44,3.87-8.95,5.11-16.06,15.64-6.69,16.57-7.09,29.24-13.6-3.84,10.89-4.07,11.55-8.16,18.1-11.79,5.66-13.92,6.68-26.19,11.56" transform="translate(-7.94 -9.57)"/><path class="cls-167" d="M238.05,383.56c3.9-3.69,4.13-3.91,5.65-7.9,11.49-3.25,14.57-4.12,26.2-8.1-4.93,6.57-5.22,7-10,10.29-10.18,2.95-12,3.48-21.86,5.71" transform="translate(-7.94 -9.57)"/><path class="cls-168" d="M292.07,365.38c9.17-7.25,9.72-7.69,14.77-13.89,12.27-6.88,13-7.29,22.56-13.88-8.83,9.87-9.36,10.46-16.94,16.37a187.69,187.69,0,0,1-20.39,11.4" transform="translate(-7.94 -9.57)"/><path class="cls-169" d="M265,376.23c6.93-5.45,7.34-5.78,10.87-10.85,11.59-4.61,14.34-5.71,25.46-11.06-7.26,8.23-7.69,8.72-14.15,13.33-10.09,4.27-11.91,5-22.18,8.58" transform="translate(-7.94 -9.57)"/><path class="cls-170" d="M155.16,375.48c-9.28-7.22-10-7.8-16.82-14.36,8.92-1.46,11.61-1.9,22.12-3.88,7.42,9.33,8,10.09,13,15.51-9.43,1.52-10.64,1.72-18.35,2.73" transform="translate(-7.94 -9.57)"/><path class="cls-171" d="M174,385.71c-8.34-3.47-8.84-3.68-15.18-7.71,6.85-.85,8.92-1.11,17.4-2.44,6.16,5.81,6.81,6.41,10.66,9.15-11.31,1.12-12.72,1-12.88,1" transform="translate(-7.94 -9.57)"/><path class="cls-172" d="M208.74,365.53c-3.83-8.64-3.83-8.64-7.82-17.4,13.78-3.67,17.48-4.65,32.09-9.09,3,10.84,3.34,12.23,4.59,18.81-13.86,3.93-16,4.53-28.86,7.68" transform="translate(-7.94 -9.57)"/><path class="cls-173" d="M178.38,371.89c-6.22-7.63-7.18-8.8-12.2-15.78,11.79-2.48,15-3.15,27.88-6.25q4.29,8.55,8.6,17.09c-12.14,2.64-13.69,3-24.28,4.94" transform="translate(-7.94 -9.57)"/><path class="cls-174" d="M214.45,380.34a118.16,118.16,0,0,0-4.3-11.51c11.94-2.91,15.15-3.69,28-7.32.79,8.34.84,8.84.3,13.28-11.68,2.91-13.47,3.36-24,5.55" transform="translate(-7.94 -9.57)"/><path class="cls-175" d="M190.54,384.27a92.06,92.06,0,0,1-9.64-9.49c9.51-1.73,12.38-2.25,23.36-4.62,3.22,6.58,3.8,7.77,5.27,11.12-9.7,1.7-10.94,1.92-19,3" transform="translate(-7.94 -9.57)"/><path class="cls-176" d="M190.46,388.17c-2.4-.15-5.61-.37-8-.57l-5.27-.94c4.49-.1,5.69-.12,11.78-.64,4.61,2.24,4.7,2.28,6.47,2.34-1.49-.05-3.48-.11-5-.19" transform="translate(-7.94 -9.57)"/><path class="cls-177" d="M214.93,387.45c.64-2.12.67-2.21,0-5.2,9.68-1.95,12.29-2.47,23-5.1-2,5-2.08,5.31-4.66,7.39-9.16,1.67-10.57,1.93-18.41,2.91" transform="translate(-7.94 -9.57)"/><path class="cls-178" d="M199.26,388.43h-1c-3-.74-3.14-.78-5.93-2.74,7.1-.87,9.25-1.14,17.91-2.58,1.21,3.57,1.29,3.79,1.07,4.73a119,119,0,0,1-12.08.6" transform="translate(-7.94 -9.57)"/><path class="cls-179" d="M340,200.55c-7.06-16.49-7.64-17.83-13.87-29.78,11.06-10.27,11.5-10.67,18.73-19.66,8.63,15.2,9.74,17.15,14.86,28.54-9,10.92-9.56,11.57-19.72,20.9" transform="translate(-7.94 -9.57)"/><path class="cls-180" d="M351.3,237.83c-4-16.81-4.35-18.18-8.69-30.43,11.68-11,12.13-11.43,19.89-21.11,6,16.57,6.45,17.93,9.11,29.73-9.4,11.49-10,12.18-20.31,21.81" transform="translate(-7.94 -9.57)"/><path class="cls-181" d="M375,148.64c-8.57-15.45-8.91-16-16.21-26.34,1.5-10.25,1.56-10.65.64-19.28,10.37,13.66,11,14.47,16.76,24.53.6,10.84.64,11.48-1.19,21.09" transform="translate(-7.94 -9.57)"/><path class="cls-182" d="M363.17,174.83c-7.67-15.77-8.29-17.05-15.1-28.23,6.26-10.45,6.51-10.86,9.6-19.83,9.71,14.71,10.51,15.91,16,26.71-4.22,11.06-4.47,11.72-10.53,21.35" transform="translate(-7.94 -9.57)"/><path class="cls-183" d="M387.92,183.13C383.16,166.62,383,166,378,154.85c1.93-11.36,2-11.8,1.29-21.43,6.76,15.11,7.16,16,10.2,27,.46,11.93.48,12.4-1.6,22.72" transform="translate(-7.94 -9.57)"/><path class="cls-184" d="M375.21,210.94c-4.42-17.1-4.59-17.77-9.23-29.53,6.89-11.38,7.16-11.82,10.69-21.64,6.38,15.78,6.9,17.07,9.78,28.53-4.66,12-4.84,12.45-11.24,22.64" transform="translate(-7.94 -9.57)"/><path class="cls-185" d="M354.81,272.84c-.4-15.57-.42-16.51-2.25-28.23,11.66-11,12.36-11.69,20.35-21.75,2.12,16.91,2.25,17.92,2,29.13-9.51,11.21-9.89,11.65-20.14,20.85" transform="translate(-7.94 -9.57)"/><path class="cls-186" d="M394,199.31l-.06,4.4a151.88,151.88,0,0,1-2.21,15.61c-.28-16.84-.3-17.85-2.37-29.59,2.16-11.9,2.28-12.61,1.67-22.95.63,4.05,1.64,9.44,2.06,13.52.33,5.7.93,13.3.91,19" transform="translate(-7.94 -9.57)"/><path class="cls-187" d="M378.59,247.05c-.18-16.34-.19-17.32-2.06-29.29,7.1-11.74,7.52-12.44,11.32-22.81,2.36,16.86,2.5,17.87,2.3,29.61-4.85,12-5,12.46-11.56,22.49" transform="translate(-7.94 -9.57)"/><path class="cls-188" d="M375.44,122.85c-8.71-14-9.23-14.83-16.81-24.1-3-9.69-3.12-10.07-7.75-18.08,10.33,12.14,10.95,12.86,16.67,22,5.25,10.26,5.56,10.87,7.89,20.13" transform="translate(-7.94 -9.57)"/><path class="cls-189" d="M383.66,137.34l4,13.07,1.11,4.89c-4.85-15.4-5.14-16.32-10.22-26.67-2.82-10.4-3-11-6.67-18.26,7.72,15.91,9.11,18.78,11.78,27" transform="translate(-7.94 -9.57)"/><path class="cls-190" d="M354.38,83.43l7,9.67c-3.78-5-9-11.62-13.18-16.35-2.65-3.31-6.3-7.64-9.2-10.73,4.72,5.11,11.08,11.9,15.34,17.41" transform="translate(-7.94 -9.57)"/><polyline class="cls-191" points="382.94 155.21 382.32 152.04 382 150.4 382.94 155.21"/><path class="cls-192" d="M350.11,303.64c3.42-13.6,3.62-14.42,4.46-24.77,11.4-10.42,12.08-11.05,20-20.59-2,15.25-2.15,16.16-5.24,26.17-9.13,10.34-9.49,10.75-19.23,19.19" transform="translate(-7.94 -9.57)"/><path class="cls-193" d="M337.27,329.85c7.15-11.43,7.58-12.12,11.07-21,10.79-9.49,11.44-10.06,19-18.81-6,13.43-6.37,14.24-12.15,22.9-8.57,9.16-8.9,9.52-17.93,16.92" transform="translate(-7.94 -9.57)"/><path class="cls-194" d="M390.91,233c-1.07,4.78-2.35,11.18-3.62,15.91,1.52-6.84,3.17-16,4-23,.71-3.63,1.68-8.47,2.07-12.15-.69,5.78-1.37,13.53-2.5,19.24" transform="translate(-7.94 -9.57)"/><path class="cls-195" d="M372.87,279.86c4-14.67,4.23-15.55,5.33-26.47,7.19-11.37,7.62-12.06,11.57-22.28-2.13,16-2.26,16.94-5.52,27.67-4.82,11.26-5,11.7-11.38,21.08" transform="translate(-7.94 -9.57)"/><path class="cls-196" d="M370,291.09c-2.47,4-5.65,9.49-8.29,13.42l-3.14,4.33c7.9-12.85,8.38-13.62,12.32-23.32,6.91-10.44,7.32-11.06,11-19.86-3.28,7.75-7.74,18.09-11.87,25.43" transform="translate(-7.94 -9.57)"/><path class="cls-197" d="M331.29,339.32l-9.58,8.05-5,3.71C327.36,342,328,341.48,334,334.16c10-8.24,10.57-8.74,17.66-16.42l-5.43,6.56c-4.4,4.6-10.21,10.81-15,15" transform="translate(-7.94 -9.57)"/><polyline class="cls-198" points="345.82 305.77 347.05 304.18 347.85 303.14 345.82 305.77"/><path class="cls-199" d="M217.8,387.75l-4,.29.63-.15c7.05-.76,9-1,17.29-2.37a32.54,32.54,0,0,1-4.18,1.19c-2.91.35-6.79.8-9.7,1" transform="translate(-7.94 -9.57)"/><polyline class="cls-200" points="200.42 378.74 198.69 378.8 203.12 378.58 202.9 378.64 200.42 378.74"/><path class="cls-201" d="M231.21,386.19a37.66,37.66,0,0,0,4.94-1.52c9.16-2,11.34-2.45,20.84-5.12-2.32,1-5.4,2.34-7.81,3.07-8.45,1.92-10,2.27-18,3.57" transform="translate(-7.94 -9.57)"/><path class="cls-202" d="M277.48,373.33c3.19-1.56,7.5-3.56,10.57-5.35,10.74-5.27,11.39-5.59,19.9-10.79l-3.12,2c-13.79,8-14.05,8.19-27.35,14.12" transform="translate(-7.94 -9.57)"/><path class="cls-203" d="M253.42,381.52c2.55-1,6-2.22,8.44-3.45,9.65-3.24,11.95-4,21.43-8-3.28,1.67-7.66,3.92-11.07,5.33-8.61,3.09-10.16,3.65-18.8,6.08" transform="translate(-7.94 -9.57)"/></g></svg>